<?xml version="1.0" encoding="UTF-8" standalone="no"?>
<svg
   xmlns:dc="http://purl.org/dc/elements/1.1/"
   xmlns:cc="http://creativecommons.org/ns#"
   xmlns:rdf="http://www.w3.org/1999/02/22-rdf-syntax-ns#"
   xmlns:svg="http://www.w3.org/2000/svg"
   xmlns="http://www.w3.org/2000/svg"
   height="55.222"
   width="327.04199"
   xml:space="preserve"
   viewBox="0 0 327.042 55.222"
   y="0px"
   x="0px"
   id="Visitenkarte"
   version="1.1"><metadata
   id="metadata57"><rdf:RDF><cc:Work
       rdf:about=""><dc:format>image/svg+xml</dc:format><dc:type
         rdf:resource="http://purl.org/dc/dcmitype/StillImage" /><dc:title></dc:title></cc:Work></rdf:RDF></metadata><defs
   id="defs55" />
<style
   id="style2"
   type="text/css">
	.st0{opacity:0.5;}
	.st1{fill:#FF6633;}
	.st2{fill:#000028;}
</style>
<g
   id="g16">
	<g
   style="opacity:0.5"
   id="g6"
   class="st0">
		<path
   style="fill:#ff6633"
   id="path4"
   d="M 304.348,10.469 C 290.683,5.11 275.681,8.964 266.197,19.034 l 2.625,2.434 c 8.511,-9.023 21.965,-12.473 34.219,-7.667 12.354,4.845 19.897,16.67 19.886,29.185 l 3.579,-0.002 c 0.011,-13.943 -8.395,-27.117 -22.158,-32.515"
   class="st1" />
	</g>
	<g
   style="opacity:0.5"
   id="g10"
   class="st0">
		<path
   style="fill:#ff6633"
   id="path8"
   d="M 305.655,7.138 C 295.689,3.23 285.078,3.767 276.009,7.791 l 2.936,6.526 c 7.374,-3.261 15.997,-3.692 24.096,-0.516 8.178,3.207 14.246,9.474 17.412,16.973 l 6.589,-2.793 C 323.151,18.772 315.698,11.076 305.655,7.138"
   class="st1" />
	</g>
	<g
   style="opacity:0.5"
   id="g14"
   class="st0">
		<path
   style="fill:#ff6633"
   id="path12"
   d="M 307.288,2.974 C 301.16,0.571 294.813,-0.325 288.656,0.104 l 0.822,11.602 c 4.483,-0.308 9.103,0.346 13.564,2.095 4.481,1.758 8.328,4.434 11.413,7.728 l 8.487,-7.954 c -4.23,-4.518 -9.508,-8.19 -15.654,-10.601"
   class="st1" />
	</g>
</g>
<g
   id="g42">
	<g
   id="g24">
		<rect
   style="fill:#000028"
   id="rect18"
   height="3.382"
   width="17.968"
   class="st2"
   y="40.847"
   x="134.20799" />
		<rect
   style="fill:#000028"
   id="rect20"
   height="3.382"
   width="19.236"
   class="st2"
   y="29.855"
   x="134.20799" />
		<rect
   style="fill:#000028"
   id="rect22"
   height="3.382"
   width="19.236"
   class="st2"
   y="51.839001"
   x="134.20799" />
	</g>
	<polygon
   style="fill:#000028"
   id="polygon26"
   points="72.231,29.855 68.849,29.855 68.849,51.839 68.849,55.222 72.231,55.222 88.085,55.222 88.085,51.839 72.231,51.839 "
   class="st2" />
	<polygon
   style="fill:#000028"
   id="polygon28"
   points="187.636,29.855 187.636,50.972 170.83,29.855 170.163,29.855 166.781,29.855 166.781,55.222 170.163,55.222 170.163,34.105 186.969,55.222 187.636,55.222 191.018,55.222 191.018,29.855 "
   class="st2" />
	<g
   id="g36">
		<rect
   style="fill:#000028"
   id="rect30"
   height="3.382"
   width="17.968"
   class="st2"
   y="40.847"
   x="101.423" />
		<rect
   style="fill:#000028"
   id="rect32"
   height="3.382"
   width="19.448"
   class="st2"
   y="29.855"
   x="101.423" />
		<rect
   style="fill:#000028"
   id="rect34"
   height="3.382"
   width="19.448"
   class="st2"
   y="51.839001"
   x="101.423" />
	</g>
	<path
   style="fill:#000028"
   id="path38"
   d="m 55.512,37.069 c 0,-2.543 -0.783,-4.375 -2.349,-5.51 -1.566,-1.135 -4.104,-1.704 -7.614,-1.704 h -8.434 -3.518 v 3.382 h 11.952 c 3.742,0 5.157,0.767 5.59,1.081 0.229,0.167 0.926,0.689 0.926,2.743 0,1.596 -0.542,2.225 -1.072,2.607 -0.731,0.526 -2.269,1.178 -5.444,1.178 H 33.597 V 55.221 H 37.19 V 44.229 h 8.359 c 3.304,0 5.79,-0.584 7.46,-1.787 1.669,-1.203 2.503,-2.99 2.503,-5.373"
   class="st2" />
	<path
   style="fill:#000028"
   id="path40"
   d="M 17.911,42.552 C 16.344,41.417 13.807,40.848 10.297,40.848 H 9.964 9.963 C 6.788,40.848 5.25,40.196 4.52,39.67 3.991,39.288 3.448,38.658 3.448,37.063 c 0,-2.055 0.696,-2.577 0.926,-2.743 0.433,-0.314 1.847,-1.081 5.59,-1.081 h 8.57 v -3.382 h -8.57 c -3.51,0 -6.048,0.57 -7.614,1.704 C 0.783,32.694 0,34.525 0,37.069 c 0,2.383 0.834,4.17 2.503,5.374 1.669,1.202 4.155,1.787 7.459,1.787 h 0.333 10e-4 c 3.742,0 5.157,0.767 5.59,1.081 0.23,0.167 0.926,0.689 0.926,2.743 0,1.596 -0.542,2.225 -1.072,2.607 -0.731,0.526 -2.269,1.178 -5.443,1.178 H 0 v 3.382 h 10.297 c 3.304,0 5.79,-0.584 7.46,-1.787 1.67,-1.204 2.503,-2.99 2.503,-5.374 0,-2.542 -0.783,-4.374 -2.349,-5.508 z"
   class="st2" />
</g>
<g
   id="g50">
	<polygon
   style="fill:#ff6633"
   id="polygon44"
   points="223.591,51.839 207.737,51.839 207.737,29.855 204.355,29.855 204.355,51.839 204.355,55.222 207.737,55.222 223.591,55.222 "
   class="st1" />
	<path
   style="fill:#ff6633"
   id="path46"
   d="m 299.585,42.552 c -0.223,-0.162 -0.472,-0.309 -0.734,-0.448 1.388,-1.191 2.089,-2.862 2.089,-5.035 0,-2.543 -0.783,-4.375 -2.349,-5.51 -1.566,-1.135 -4.104,-1.704 -7.614,-1.704 h -7.44 -3.518 v 3.382 h 10.957 c 3.742,0 5.157,0.767 5.59,1.081 0.229,0.167 0.926,0.689 0.926,2.743 0,1.596 -0.542,2.225 -1.072,2.607 -0.731,0.526 -2.269,1.178 -5.444,1.178 h -10.957 v 0 3.382 0 h 11.952 c 3.742,0 5.157,0.767 5.59,1.081 0.23,0.167 0.926,0.689 0.926,2.743 0,1.596 -0.542,2.225 -1.072,2.607 -0.731,0.526 -2.269,1.178 -5.443,1.178 H 280.02 v 3.382 h 11.952 c 3.304,0 5.79,-0.584 7.46,-1.787 1.67,-1.204 2.503,-2.99 2.503,-5.374 -10e-4,-2.54 -0.784,-4.372 -2.35,-5.506 z"
   class="st1" />
	<polygon
   style="fill:#ff6633"
   id="polygon48"
   points="240.71,55.221 251.805,33.269 262.898,55.221 266.681,55.221 253.864,29.854 249.746,29.854 236.929,55.221 "
   class="st1" />
</g>
</svg>