<?xml version="1.0" encoding="UTF-8" standalone="no"?>
<!-- Created with Inkscape (http://www.inkscape.org/) -->

<svg
   width="171.67952mm"
   height="37.657928mm"
   viewBox="0 0 171.67952 37.657928"
   version="1.1"
   id="svg5"
   inkscape:version="1.1 (c68e22c387, 2021-05-23)"
   sodipodi:docname="adversarial_example.svg"
   xmlns:inkscape="http://www.inkscape.org/namespaces/inkscape"
   xmlns:sodipodi="http://sodipodi.sourceforge.net/DTD/sodipodi-0.dtd"
   xmlns="http://www.w3.org/2000/svg"
   xmlns:svg="http://www.w3.org/2000/svg">
  <sodipodi:namedview
     id="namedview7"
     pagecolor="#ffffff"
     bordercolor="#666666"
     borderopacity="1.0"
     inkscape:pageshadow="2"
     inkscape:pageopacity="0.0"
     inkscape:pagecheckerboard="0"
     inkscape:document-units="mm"
     showgrid="false"
     inkscape:zoom="1.0482005"
     inkscape:cx="349.16984"
     inkscape:cy="123.54507"
     inkscape:window-width="1920"
     inkscape:window-height="1017"
     inkscape:window-x="-8"
     inkscape:window-y="-8"
     inkscape:window-maximized="1"
     inkscape:current-layer="layer1" />
  <defs
     id="defs2" />
  <g
     inkscape:label="Ebene 1"
     inkscape:groupmode="layer"
     id="layer1"
     transform="translate(-8.5413119,-8.1896942)">
    <path
       style="fill:#000000;stroke:#000000;stroke-width:0.408204;stroke-linecap:butt;stroke-linejoin:miter;stroke-miterlimit:4;stroke-dasharray:none;stroke-opacity:1"
       d="m 31.586635,9.0978504 c -2.281393,-0.06915 -4.804754,-0.311168 -4.804754,-0.311168 0,0 -2.004861,0 -2.730761,0.03458 -0.725897,0.03458 -6.947883,1.7632856 -8.641645,4.2180596 -1.693763,2.454774 -3.456658,5.843054 -3.456658,5.843054 l -0.380233,2.385625 c 0,0 0,0.65691 0.380233,0.691485 0.380232,0.03458 1.036998,-0.48404 1.140696,-0.968078 0.1037,-0.484041 0.03456,1.867009 -0.622198,2.835088 -0.656765,0.968079 -1.659197,2.800517 -1.659197,2.800517 0,0 0.276534,1.106376 -1.2098301,3.803163 -1.486363,2.696796 -0.587631,3.872324 -0.587631,3.872324 l 0.380231,0.449466 5.8071871,-0.172881 0.172833,-1.348392 -0.414799,-0.760634 c 0,0 -0.241965,0.06915 -0.449366,0 -0.207399,-0.06915 -0.553065,-0.345745 -0.449366,-0.760634 0.1037,-0.414894 0.795032,-1.175517 1.036999,-1.348392 0.241966,-0.17287 1.278963,-1.521267 1.278963,-1.521267 l 0.864165,2.835082 c 0,0 0.276532,1.071807 0.553064,1.486701 0.276533,0.414889 0.967865,1.31381 1.140698,1.452113 0.172833,0.138304 5.530653,0 5.530653,0 l -0.449365,-1.382969 c 0,0 -0.587632,-0.553187 -1.417229,-0.864355 -0.829599,-0.311173 -1.071565,-1.417541 -1.071565,-1.417541 l -0.1037,-2.869665 c 0,0 0.172833,-1.797861 0.518498,-2.212753 0.345667,-0.414891 3.180127,0.656911 3.180127,0.656911 0,0 2.212261,0.345742 2.869027,0.380318 0.656763,0.03458 2.730759,-0.587763 3.560357,-0.864358 0.829598,-0.276593 1.832029,-1.175525 1.832029,-1.175525 0,0 -0.241967,3.353705 -0.518499,3.734021 -0.276533,0.380318 0.518499,3.803164 0.518499,3.803164 0,0 0.760465,2.143603 1.555497,2.143603 0.795031,0 4.804758,0.06915 4.804758,0.06915 0,0 0.138265,-1.970728 -0.829604,-2.17818 -0.967863,-0.207442 -1.590059,-0.62233 -1.451806,-1.486685 0.138282,-0.864366 1.244409,-3.803169 1.624637,-4.079765 0.380239,-0.276593 0.86417,2.316473 1.037001,2.558492 0.172842,0.242019 2.177695,2.800516 2.177695,2.800516 0,0 2.972727,2.351045 3.180123,2.351045 0.207403,0 4.251697,0 4.251697,0 0,0 -0.725906,-1.901579 -2.315965,-2.351045 -1.590059,-0.44946 -2.03943,-3.941461 -2.03943,-3.941461 0,0 -0.518498,-2.247329 -0.449354,-2.593071 0.06912,-0.345743 0.06912,-1.555843 0.06912,-1.555843 l -0.518498,-1.624991 0.760466,-1.140951 1.486356,0.414892 c 0,0 2.246832,-0.172872 2.661637,-0.06915 0.414799,0.103723 2.350525,0.72606 2.350525,0.72606 0,0 1.037001,-0.03458 1.520933,-0.311169 0.483931,-0.276593 1.071561,-0.380317 1.071561,-0.380317 0,0 0.553064,-0.829781 0.276535,-0.864356 -0.276535,-0.03458 0.933291,-0.103723 0.62219,-1.279248 -0.311095,-1.175526 -1.20982,-1.763289 -1.244386,-2.143606 -0.03452,-0.380317 -0.656773,-0.656911 -0.656773,-0.656911 l -0.241969,-2.316475 c 0,0 -0.691328,-1.763289 -1.106128,-2.385626 -0.414793,-0.622336 -2.143128,-1.62499 -2.143128,-1.62499 l -1.278959,-0.414892 0.172826,-0.9335036 c 0,0 -0.518487,-1.14095 -1.417229,-0.587763 -0.898725,0.553188 -1.209826,1.002653 -1.209826,1.002653 l -2.212261,0.345742 c 0,0 -3.352954,-0.518614 -3.560362,-0.656909 -0.207397,-0.138298 -3.456656,-0.656913 -3.456656,-0.656913 0,0 -1.901162,0.207447 -2.834459,0.449466 -0.933297,0.242019 -2.454228,0.06915 -2.454228,0.06915 z"
       id="path1119" />
    <path
       style="fill:#ffffff;stroke:#ffffff;stroke-width:0.147772px;stroke-linecap:butt;stroke-linejoin:miter;stroke-opacity:1"
       d="m 31.578639,10.382572 c -1.374527,0.07049 -3.912115,-0.3876876 -3.912115,-0.3876876 0,0 -6.132502,0.03525 -8.740579,1.8679476 -2.608075,1.832701 -4.017846,4.616999 -4.017846,4.616999 0,0 -0.951596,2.39661 -1.127817,4.088335 -0.176221,1.691724 0.810618,3.841626 1.022085,4.088336 0.211465,0.246709 1.445014,-1.691726 1.445014,-1.691726 0,0 1.621236,-1.374526 2.431856,-1.480259 0.810617,-0.105733 2.784296,0.845862 2.925273,1.445015 0.140977,0.599153 0.07049,1.550749 0.07049,1.550749 l 4.898953,0.704884 2.008924,0.211466 2.995763,-2.008923 c 0,0 1.585992,-1.374526 0.563908,-4.123581 -1.022083,-2.749053 -0.91635,-6.555433 -0.91635,-6.555433 z"
       id="path2765" />
    <path
       style="fill:#ffffff;stroke:#ffffff;stroke-width:0.147772px;stroke-linecap:butt;stroke-linejoin:miter;stroke-opacity:1"
       d="m 47.995563,12.569366 -0.16199,-0.535811 c 0,0 -0.137059,-0.560732 -0.112149,-0.735182 0.02491,-0.174451 0.398742,-0.448588 0.398742,-0.448588 l 0.398748,0.04984 h 0.510885 l 0.897173,0.261676 1.246073,0.822408 1.009321,1.208691 0.47351,1.345759 -0.09969,0.959476 c 0,0 -0.18691,0.03738 -0.523351,0.07476 -0.33644,0.03738 -0.411202,0.461047 -0.411202,0.461047 0,0 -0.224292,0.411203 -0.224292,0.660418 0,0.249215 -0.348912,0.822409 -0.373821,0.897173 -0.02491,0.07476 -0.423669,0.249215 -0.423669,0.249215 0,0 -0.274133,0.161989 -0.423662,0.249215 -0.14953,0.08723 -0.07476,0.411204 -0.07476,0.411204 0,0 0.249213,0.137067 0.423663,0.249213 0.174451,0.112148 0.859792,-0.124605 0.859792,-0.124605 0,0 0.498425,-0.411205 0.610573,-0.485971 0.112149,-0.07476 0.398742,-0.672879 0.398742,-0.672879 l 0.286599,-0.747643 0.199372,0.186911 0.461049,0.386283 0.498425,0.411204 0.510891,0.68534 0.585658,0.897172 0.0623,0.49843 -0.411203,0.336439 v 0.49843 l -0.17445,0.0623 0.03736,0.361361 -0.224292,0.386282 h -0.48597 l -1.059162,-0.149529 -0.872252,-0.199372 0.386282,0.261675 0.560732,0.436127 h -0.174447 l -1.395597,-0.299057 -1.146391,-0.361363 -1.270994,-0.04984 h -1.906493 c 0,0 -0.685341,-0.436126 -2.006177,-0.647957 -1.320835,-0.211833 -2.168166,0.199371 -2.978111,0.448586 -0.80995,0.249214 -1.545133,1.258533 -1.545133,1.258533 0,0 -1.021792,1.6822 -1.046702,1.133926 -0.02491,-0.548272 0.436123,-1.756961 0.436123,-1.756961 l 0.610579,-0.897175 c 0,0 0.722723,-0.809946 1.183766,-1.333297 0.46105,-0.523352 0.124609,-1.146387 0.124609,-1.146387 l -0.523351,-0.8224 -1.171305,-1.408063 -1.071623,-1.071622 -1.12147,-1.171309 -0.199371,-0.623036 -0.348899,-1.171309 -0.573193,-1.071623 -0.348901,-0.9719376 0.348901,-0.04984 1.071622,0.149528 1.644815,0.2741366 3.239789,0.647957 2.816127,0.04984 0.07477,0.760104 0.872252,0.922094 0.984394,0.436126 0.436129,-0.186911 z"
       id="path4167" />
    <path
       style="fill:#000000;stroke:#000000;stroke-width:0.408204;stroke-linecap:butt;stroke-linejoin:miter;stroke-miterlimit:4;stroke-dasharray:none;stroke-opacity:1"
       d="m 156.32605,8.8816379 c -2.28139,-0.06915 -4.80475,-0.311168 -4.80475,-0.311168 0,0 -2.00486,0 -2.73076,0.03458 -0.7259,0.03458 -6.94788,1.7632851 -8.64165,4.2180591 -1.69376,2.454774 -3.45665,5.843054 -3.45665,5.843054 l -0.38024,2.385625 c 0,0 0,0.65691 0.38024,0.691485 0.38023,0.03458 1.03699,-0.48404 1.14069,-0.968078 0.1037,-0.484041 0.0346,1.867009 -0.6222,2.835088 -0.65676,0.968079 -1.65919,2.800517 -1.65919,2.800517 0,0 0.27653,1.106376 -1.20983,3.803163 -1.48637,2.696796 -0.58763,3.872324 -0.58763,3.872324 l 0.38023,0.449466 5.80718,-0.172881 0.17284,-1.348392 -0.4148,-0.760634 c 0,0 -0.24197,0.06915 -0.44937,0 -0.2074,-0.06915 -0.55306,-0.345745 -0.44936,-0.760634 0.1037,-0.414894 0.79503,-1.175517 1.037,-1.348392 0.24196,-0.17287 1.27896,-1.521267 1.27896,-1.521267 l 0.86416,2.835082 c 0,0 0.27654,1.071807 0.55307,1.486701 0.27653,0.414889 0.96786,1.31381 1.1407,1.452113 0.17283,0.138304 5.53065,0 5.53065,0 l -0.44937,-1.382969 c 0,0 -0.58763,-0.553187 -1.41723,-0.864355 -0.82959,-0.311173 -1.07156,-1.417541 -1.07156,-1.417541 l -0.1037,-2.869665 c 0,0 0.17283,-1.797861 0.5185,-2.212753 0.34567,-0.414891 3.18012,0.656911 3.18012,0.656911 0,0 2.21227,0.345742 2.86903,0.380318 0.65677,0.03458 2.73076,-0.587763 3.56036,-0.864358 0.8296,-0.276593 1.83203,-1.175525 1.83203,-1.175525 0,0 -0.24197,3.353705 -0.5185,3.734021 -0.27653,0.380318 0.5185,3.803164 0.5185,3.803164 0,0 0.76046,2.143603 1.55549,2.143603 0.79504,0 4.80476,0.06915 4.80476,0.06915 0,0 0.13827,-1.970728 -0.8296,-2.17818 -0.96786,-0.207442 -1.59006,-0.62233 -1.45181,-1.486685 0.13828,-0.864366 1.24441,-3.803169 1.62464,-4.079765 0.38024,-0.276593 0.86417,2.316473 1.037,2.558492 0.17284,0.242019 2.1777,2.800516 2.1777,2.800516 0,0 2.97272,2.351045 3.18012,2.351045 0.2074,0 4.2517,0 4.2517,0 0,0 -0.72591,-1.901579 -2.31597,-2.351045 -1.59006,-0.44946 -2.03943,-3.941461 -2.03943,-3.941461 0,0 -0.5185,-2.247329 -0.44935,-2.593071 0.0691,-0.345743 0.0691,-1.555843 0.0691,-1.555843 l -0.5185,-1.624991 0.76046,-1.140951 1.48636,0.414892 c 0,0 2.24683,-0.172872 2.66164,-0.06915 0.4148,0.103723 2.35052,0.72606 2.35052,0.72606 0,0 1.037,-0.03458 1.52094,-0.311169 0.48393,-0.276593 1.07156,-0.380317 1.07156,-0.380317 0,0 0.55306,-0.829781 0.27653,-0.864356 -0.27653,-0.03458 0.93329,-0.103723 0.62219,-1.279248 -0.31109,-1.175526 -1.20982,-1.763289 -1.24438,-2.143606 -0.0345,-0.380317 -0.65678,-0.656911 -0.65678,-0.656911 l -0.24197,-2.316475 c 0,0 -0.69132,-1.763289 -1.10612,-2.385626 -0.4148,-0.622336 -2.14313,-1.62499 -2.14313,-1.62499 l -1.27896,-0.4148917 0.17283,-0.9335034 c 0,0 -0.51849,-1.1409495 -1.41723,-0.5877627 -0.89873,0.5531877 -1.20983,1.0026524 -1.20983,1.0026524 l -2.21226,0.3457417 c 0,0 -3.35295,-0.5186137 -3.56036,-0.6569087 -0.2074,-0.1382977 -3.45666,-0.6569124 -3.45666,-0.6569124 0,0 -1.90116,0.2074467 -2.83446,0.4494657 -0.93329,0.2420187 -2.45423,0.06915 -2.45423,0.06915 z"
       id="path1119-1" />
    <path
       style="fill:#ffffff;stroke:#ffffff;stroke-width:0.147772px;stroke-linecap:butt;stroke-linejoin:miter;stroke-opacity:1"
       d="m 156.31806,10.166359 c -1.37453,0.07049 -3.91212,-0.3876877 -3.91212,-0.3876877 0,0 -6.1325,0.03525 -8.74057,1.8679477 -2.60808,1.832701 -4.01785,4.616999 -4.01785,4.616999 0,0 -0.9516,2.39661 -1.12782,4.088335 -0.17622,1.691724 0.81062,3.841626 1.02209,4.088336 0.21146,0.246709 1.44501,-1.691726 1.44501,-1.691726 0,0 1.62124,-1.374526 2.43186,-1.480259 0.81061,-0.105733 2.78429,0.845862 2.92527,1.445015 0.14098,0.599153 0.0705,1.550749 0.0705,1.550749 l 4.89895,0.704884 2.00893,0.211466 2.99576,-2.008923 c 0,0 1.58599,-1.374526 0.56391,-4.123581 -1.02209,-2.749053 -0.91635,-6.555433 -0.91635,-6.555433 z"
       id="path2765-1" />
    <path
       style="fill:#ffffff;stroke:#ffffff;stroke-width:0.147772px;stroke-linecap:butt;stroke-linejoin:miter;stroke-opacity:1"
       d="m 172.73498,12.353153 -0.16199,-0.535811 c 0,0 -0.13706,-0.560732 -0.11215,-0.735182 0.0249,-0.174451 0.39875,-0.448588 0.39875,-0.448588 l 0.39874,0.04984 h 0.51089 l 0.89717,0.261676 1.24607,0.822408 1.00933,1.208691 0.47351,1.345759 -0.0997,0.959476 c 0,0 -0.18691,0.03738 -0.52336,0.07476 -0.33644,0.03738 -0.4112,0.461047 -0.4112,0.461047 0,0 -0.22429,0.411203 -0.22429,0.660418 0,0.249215 -0.34891,0.822409 -0.37382,0.897173 -0.0249,0.07476 -0.42367,0.249215 -0.42367,0.249215 0,0 -0.27413,0.161989 -0.42366,0.249215 -0.14953,0.08723 -0.0748,0.411204 -0.0748,0.411204 0,0 0.24921,0.137067 0.42366,0.249213 0.17445,0.112148 0.85979,-0.124605 0.85979,-0.124605 0,0 0.49843,-0.411205 0.61058,-0.485971 0.11215,-0.07476 0.39874,-0.672879 0.39874,-0.672879 l 0.2866,-0.747643 0.19937,0.186911 0.46105,0.386283 0.49842,0.411204 0.51089,0.68534 0.58566,0.897172 0.0623,0.49843 -0.4112,0.336439 v 0.49843 l -0.17445,0.0623 0.0374,0.361361 -0.22429,0.386282 h -0.48597 l -1.05916,-0.149529 -0.87226,-0.199372 0.38629,0.261675 0.56073,0.436127 h -0.17445 l -1.3956,-0.299057 -1.14639,-0.361363 -1.27099,-0.04984 h -1.90649 c 0,0 -0.68535,-0.436126 -2.00618,-0.647957 -1.32084,-0.211833 -2.16817,0.199371 -2.97811,0.448586 -0.80995,0.249214 -1.54514,1.258533 -1.54514,1.258533 0,0 -1.02179,1.6822 -1.0467,1.133926 -0.0249,-0.548272 0.43613,-1.756961 0.43613,-1.756961 l 0.61057,-0.897175 c 0,0 0.72273,-0.809946 1.18377,-1.333297 0.46105,-0.523352 0.12461,-1.146387 0.12461,-1.146387 l -0.52335,-0.8224 -1.17131,-1.408063 -1.07162,-1.071622 -1.12147,-1.171309 -0.19937,-0.623036 -0.3489,-1.171309 -0.57319,-1.071623 -0.3489,-0.9719377 0.3489,-0.04984 1.07162,0.149528 1.64481,0.274137 3.23979,0.6479567 2.81613,0.04984 0.0748,0.760104 0.87225,0.922094 0.9844,0.436126 0.43613,-0.186911 z"
       id="path4167-1" />
    <rect
       style="display:inline;fill:#ffffff;fill-opacity:1;stroke:#000000;stroke-width:0.681978;stroke-miterlimit:4;stroke-dasharray:none;stroke-opacity:1"
       id="rect71691"
       width="2.7208555"
       height="12.059443"
       x="67.157852"
       y="16.447182" />
    <rect
       style="display:inline;fill:#ffffff;fill-opacity:1;stroke:#000000;stroke-width:0.681978;stroke-miterlimit:4;stroke-dasharray:none;stroke-opacity:1"
       id="rect71691-5"
       width="2.5841665"
       height="12.697325"
       x="21.160191"
       y="-74.791359"
       transform="rotate(90)" />
    <rect
       style="display:inline;fill:#ffffff;fill-opacity:1;stroke:#ffffff;stroke-width:0.204233;stroke-miterlimit:4;stroke-dasharray:none;stroke-opacity:1"
       id="rect71817"
       width="1.898513"
       height="4.3944654"
       x="67.574699"
       y="20.171995" />
    <rect
       style="fill:#000000;stroke:#000000;stroke-width:0.0432153"
       id="rect32636"
       width="1.1676078"
       height="9.4839077"
       x="83.912277"
       y="17.723034"
       ry="0.67742205" />
    <rect
       style="fill:#000000;stroke:#000000;stroke-width:0.0314849"
       id="rect32636-2"
       width="1.1743219"
       height="5.0052524"
       x="87.364113"
       y="19.919302"
       ry="0.35751805" />
    <rect
       style="fill:#000000;stroke:#000000;stroke-width:0.0399977"
       id="rect32636-4"
       width="1.1721017"
       height="8.0930738"
       x="91.086205"
       y="18.31876"
       ry="0.57807666" />
    <rect
       style="fill:#000000;stroke:#000000;stroke-width:0.0480499"
       id="rect32636-4-3"
       width="1.1701378"
       height="11.699242"
       x="93.960312"
       y="15.668435"
       ry="0.8356601" />
    <rect
       style="fill:#000000;stroke:#000000;stroke-width:0.0401816"
       id="rect32636-8"
       width="1.1694514"
       height="8.1861591"
       x="80.349838"
       y="18.436979"
       ry="0.58472568" />
    <rect
       style="fill:#000000;stroke:#000000;stroke-width:0.044581"
       id="rect32636-0"
       width="1.2427595"
       height="9.4825916"
       x="-105.69982"
       y="17.682447"
       ry="0.67732805"
       transform="scale(-1,1)" />
    <rect
       style="fill:#000000;stroke:#000000;stroke-width:0.0324801"
       id="rect32636-2-3"
       width="1.2499056"
       height="5.0045581"
       x="-102.02583"
       y="19.878412"
       ry="0.35746846"
       transform="scale(-1,1)" />
    <rect
       style="fill:#000000;stroke:#000000;stroke-width:0.0412621"
       id="rect32636-4-5"
       width="1.2475425"
       height="8.0919514"
       x="-98.064163"
       y="18.278093"
       ry="0.57799649"
       transform="scale(-1,1)" />
    <rect
       style="fill:#000000;stroke:#000000;stroke-width:0.0414517"
       id="rect32636-8-8"
       width="1.2447215"
       height="8.1850233"
       x="-109.49156"
       y="18.396294"
       ry="0.58464456"
       transform="scale(-1,1)" />
    <g
       id="g55962"
       transform="matrix(0.20796798,0,0,0.20796798,98.953461,2.740387)"
       style="display:inline">
      <g
         id="g55543">
        <path
           id="rect36184"
           style="fill:#ffffff;fill-opacity:1;stroke:#000000;stroke-width:1.47582"
           d="m 107.31725,73.673011 v 0 l 23.31007,24.319735 -23.08274,24.763844 z"
           sodipodi:nodetypes="ccccc" />
        <rect
           style="fill:#ffffff;fill-opacity:1;stroke:#000000;stroke-width:1.58667;stroke-miterlimit:4;stroke-dasharray:none;stroke-opacity:1"
           id="rect37778"
           width="39.6875"
           height="21.695833"
           x="76.199997"
           y="87.04792" />
      </g>
      <rect
         style="fill:#ffffff;fill-opacity:1;stroke:#ffffff;stroke-width:1.09202;stroke-opacity:1"
         id="rect55808"
         width="5.0643649"
         height="23.03536"
         x="108.7786"
         y="86.189568" />
      <rect
         style="fill:#ffffff;fill-opacity:1;stroke:#ffffff;stroke-width:1.07119;stroke-opacity:1"
         id="rect55808-3"
         width="5.0851989"
         height="22.073978"
         x="108.65825"
         y="84.822571" />
      <rect
         style="fill:#ffffff;fill-opacity:1;stroke:#ffffff;stroke-width:1.0913;stroke-opacity:1"
         id="rect55808-3-8"
         width="5.0851989"
         height="22.910772"
         x="112.35323"
         y="86.698555" />
    </g>
    <text
       xml:space="preserve"
       style="font-style:normal;font-weight:normal;font-size:6.48578px;line-height:1.25;font-family:sans-serif;fill:#000000;fill-opacity:1;stroke:none;stroke-width:0.162146"
       x="85.554062"
       y="40.375511"
       id="text36043"><tspan
         sodipodi:role="line"
         id="tspan36041"
         style="stroke-width:0.162146"
         x="85.554062"
         y="40.375511">Noise</tspan></text>
    <text
       xml:space="preserve"
       style="font-style:normal;font-weight:normal;font-size:5.6972px;line-height:1.25;font-family:sans-serif;fill:#000000;fill-opacity:1;stroke:none;stroke-width:0.14243"
       x="21.932577"
       y="42.984798"
       id="text7745"><tspan
         sodipodi:role="line"
         id="tspan7743"
         style="stroke-width:0.14243"
         x="21.932577"
         y="42.984798">&quot;Panda&quot;</tspan></text>
    <text
       xml:space="preserve"
       style="font-style:normal;font-weight:normal;font-size:6.02294px;line-height:1.25;font-family:sans-serif;fill:#000000;fill-opacity:1;stroke:none;stroke-width:0.150574"
       x="142.2323"
       y="43.639786"
       id="text10157"><tspan
         sodipodi:role="line"
         id="tspan10155"
         style="stroke-width:0.150574"
         x="142.2323"
         y="43.639786">&quot;Gibbon&quot;</tspan></text>
  </g>
</svg>
