<?xml version="1.0" encoding="UTF-8" standalone="no"?>
<!-- Created with Inkscape (http://www.inkscape.org/) -->

<svg
   xmlns:dc="http://purl.org/dc/elements/1.1/"
   xmlns:cc="http://creativecommons.org/ns#"
   xmlns:rdf="http://www.w3.org/1999/02/22-rdf-syntax-ns#"
   xmlns:svg="http://www.w3.org/2000/svg"
   xmlns="http://www.w3.org/2000/svg"
   xmlns:xlink="http://www.w3.org/1999/xlink"
   xmlns:sodipodi="http://sodipodi.sourceforge.net/DTD/sodipodi-0.dtd"
   xmlns:inkscape="http://www.inkscape.org/namespaces/inkscape"
   width="171.67952mm"
   height="37.657928mm"
   viewBox="0 0 171.67952 37.657928"
   version="1.1"
   id="svg5"
   inkscape:version="0.92.5 (2060ec1f9f, 2020-04-08)"
   sodipodi:docname="adversarial_example.svg">
  <metadata
     id="metadata37">
    <rdf:RDF>
      <cc:Work
         rdf:about="">
        <dc:format>image/svg+xml</dc:format>
        <dc:type
           rdf:resource="http://purl.org/dc/dcmitype/StillImage" />
        <dc:title></dc:title>
      </cc:Work>
    </rdf:RDF>
  </metadata>
  <sodipodi:namedview
     id="namedview7"
     pagecolor="#ffffff"
     bordercolor="#666666"
     borderopacity="1.0"
     inkscape:pageshadow="2"
     inkscape:pageopacity="0.0"
     inkscape:pagecheckerboard="0"
     inkscape:document-units="mm"
     showgrid="false"
     inkscape:zoom="2.096401"
     inkscape:cx="296.35736"
     inkscape:cy="117.26221"
     inkscape:window-width="2560"
     inkscape:window-height="1292"
     inkscape:window-x="0"
     inkscape:window-y="27"
     inkscape:window-maximized="1"
     inkscape:current-layer="layer1" />
  <defs
     id="defs2">
    <symbol
       id="FirstAid">
      <title
         id="title2241">First Aid</title>
      <path
         inkscape:connector-curvature="0"
         d="m 11.641667,3.4395833 v 3.96875 h 3.96875 v 4.2333337 h -3.96875 v 3.96875 H 7.4083333 v -3.96875 h -3.96875 V 7.4083333 h 3.96875 v -3.96875 z"
         style="stroke:none;stroke-width:0.26458332"
         id="path2243" />
    </symbol>
    <symbol
       id="RightArrow">
      <title
         id="title3393">Right Arrow</title>
      <path
         inkscape:connector-curvature="0"
         d="m 16.66875,9.525 -5.820833,5.820833 H 6.8791667 L 11.1125,11.1125 H 2.6458333 V 7.9375 H 11.1125 L 6.8791667,3.7041667 h 3.9687503 z"
         style="stroke:none;stroke-width:0.26458332"
         id="path3395" />
    </symbol>
    <filter
       inkscape:collect="always"
       style="color-interpolation-filters:sRGB"
       id="filter14073"
       x="-0.020722907"
       width="1.0414458"
       y="-0.028508259"
       height="1.0570165">
      <feGaussianBlur
         inkscape:collect="always"
         stdDeviation="0.16160405"
         id="feGaussianBlur14075" />
    </filter>
    <filter
       inkscape:collect="always"
       style="color-interpolation-filters:sRGB"
       id="filter14077"
       x="-0.021869484"
       width="1.043739"
       y="-0.026590428"
       height="1.0531809">
      <feGaussianBlur
         inkscape:collect="always"
         stdDeviation="0.17064127"
         id="feGaussianBlur14079" />
    </filter>
    <filter
       inkscape:collect="always"
       style="color-interpolation-filters:sRGB"
       id="filter14081"
       x="-0.018796929"
       width="1.0375939"
       y="-0.03318604"
       height="1.0663721">
      <feGaussianBlur
         inkscape:collect="always"
         stdDeviation="0.364475"
         id="feGaussianBlur14083" />
    </filter>
  </defs>
  <g
     inkscape:label="Ebene 1"
     inkscape:groupmode="layer"
     id="layer1"
     transform="translate(-8.5413119,-8.1896942)">
    <path
       style="fill:#000000;stroke:#000000;stroke-width:0.40820399;stroke-linecap:butt;stroke-linejoin:miter;stroke-miterlimit:4;stroke-dasharray:none;stroke-opacity:1"
       d="m 32.620635,9.9813089 c -2.281393,-0.06915 -4.804754,-0.311168 -4.804754,-0.311168 0,0 -2.004861,0 -2.730761,0.03458 -0.725897,0.03458 -6.947883,1.7632861 -8.641645,4.2180601 -1.693763,2.454774 -3.456658,5.843054 -3.456658,5.843054 l -0.380233,2.385625 c 0,0 0,0.65691 0.380233,0.691485 0.380232,0.03458 1.036998,-0.48404 1.140696,-0.968078 0.1037,-0.484041 0.03456,1.867009 -0.622198,2.835088 -0.656765,0.968079 -1.659197,2.800517 -1.659197,2.800517 0,0 0.276534,1.106376 -1.20983,3.803163 -1.486363,2.696796 -0.587631,3.872324 -0.587631,3.872324 l 0.380231,0.449466 5.807187,-0.172881 0.172833,-1.348392 -0.414799,-0.760634 c 0,0 -0.241965,0.06915 -0.449366,0 -0.207399,-0.06915 -0.553065,-0.345745 -0.449366,-0.760634 0.1037,-0.414894 0.795032,-1.175517 1.036999,-1.348392 0.241966,-0.17287 1.278963,-1.521267 1.278963,-1.521267 l 0.864165,2.835082 c 0,0 0.276532,1.071807 0.553064,1.486701 0.276533,0.414889 0.967865,1.31381 1.140698,1.452113 0.172833,0.138304 5.530653,0 5.530653,0 l -0.449365,-1.382969 c 0,0 -0.587632,-0.553187 -1.417229,-0.864355 -0.829599,-0.311173 -1.071565,-1.417541 -1.071565,-1.417541 l -0.1037,-2.869665 c 0,0 0.172833,-1.797861 0.518498,-2.212753 0.345667,-0.414891 3.180127,0.656911 3.180127,0.656911 0,0 2.212261,0.345742 2.869027,0.380318 0.656763,0.03458 2.730759,-0.587763 3.560357,-0.864358 0.829598,-0.276593 1.832029,-1.175525 1.832029,-1.175525 0,0 -0.241967,3.353705 -0.518499,3.734021 -0.276533,0.380318 0.518499,3.803164 0.518499,3.803164 0,0 0.760465,2.143603 1.555497,2.143603 0.795031,0 4.804758,0.06915 4.804758,0.06915 0,0 0.138265,-1.970728 -0.829604,-2.17818 -0.967863,-0.207442 -1.590059,-0.62233 -1.451806,-1.486685 0.138282,-0.864366 1.244409,-3.803169 1.624637,-4.079765 0.380239,-0.276593 0.86417,2.316473 1.037001,2.558492 0.172842,0.242019 2.177695,2.800516 2.177695,2.800516 0,0 2.972727,2.351045 3.180123,2.351045 0.207403,0 4.251697,0 4.251697,0 0,0 -0.725906,-1.901579 -2.315965,-2.351045 -1.590059,-0.44946 -2.03943,-3.941461 -2.03943,-3.941461 0,0 -0.518498,-2.247329 -0.449354,-2.593071 0.06912,-0.345743 0.06912,-1.555843 0.06912,-1.555843 l -0.518498,-1.624991 0.760466,-1.140951 1.486356,0.414892 c 0,0 2.246832,-0.172872 2.661637,-0.06915 0.414799,0.103723 2.350525,0.72606 2.350525,0.72606 0,0 1.037001,-0.03458 1.520933,-0.311169 0.483931,-0.276593 1.071561,-0.380317 1.071561,-0.380317 0,0 0.553064,-0.829781 0.276535,-0.864356 -0.276535,-0.03458 0.933291,-0.103723 0.62219,-1.279248 -0.311095,-1.175526 -1.20982,-1.763289 -1.244386,-2.143606 -0.03452,-0.380317 -0.656773,-0.656911 -0.656773,-0.656911 l -0.241969,-2.316475 c 0,0 -0.691328,-1.763289 -1.106128,-2.385626 -0.414793,-0.622336 -2.143128,-1.62499 -2.143128,-1.62499 l -1.278959,-0.414892 0.172826,-0.933504 c 0,0 -0.518487,-1.1409501 -1.417229,-0.5877631 C 47.449701,9.9813159 47.1386,10.430781 47.1386,10.430781 l -2.212261,0.345742 c 0,0 -3.352954,-0.518614 -3.560362,-0.656909 -0.207397,-0.1382981 -3.456656,-0.6569131 -3.456656,-0.6569131 0,0 -1.901162,0.207447 -2.834459,0.449466 -0.933297,0.2420191 -2.454228,0.06915 -2.454228,0.06915 z"
       id="path1119"
       inkscape:connector-curvature="0" />
    <path
       style="fill:#ffffff;stroke:#ffffff;stroke-width:0.147772px;stroke-linecap:butt;stroke-linejoin:miter;stroke-opacity:1"
       d="m 32.612639,11.266031 c -1.374527,0.07049 -3.912115,-0.387688 -3.912115,-0.387688 0,0 -6.132502,0.03525 -8.740579,1.867948 -2.608075,1.832701 -4.017846,4.616999 -4.017846,4.616999 0,0 -0.951596,2.39661 -1.127817,4.088335 -0.176221,1.691724 0.810618,3.841626 1.022085,4.088336 0.211465,0.246709 1.445014,-1.691726 1.445014,-1.691726 0,0 1.621236,-1.374526 2.431856,-1.480259 0.810617,-0.105733 2.784296,0.845862 2.925273,1.445015 0.140977,0.599153 0.07049,1.550749 0.07049,1.550749 l 4.898953,0.704884 2.008924,0.211466 2.995763,-2.008923 c 0,0 1.585992,-1.374526 0.563908,-4.123581 -1.022083,-2.749053 -0.91635,-6.555433 -0.91635,-6.555433 z"
       id="path2765"
       inkscape:connector-curvature="0" />
    <path
       style="fill:#ffffff;stroke:#ffffff;stroke-width:0.147772px;stroke-linecap:butt;stroke-linejoin:miter;stroke-opacity:1"
       d="m 49.029563,13.452825 -0.16199,-0.535811 c 0,0 -0.137059,-0.560732 -0.112149,-0.735182 0.02491,-0.174451 0.398742,-0.448588 0.398742,-0.448588 l 0.398748,0.04984 h 0.510885 l 0.897173,0.261676 1.246073,0.822408 1.009321,1.208691 0.47351,1.345759 -0.09969,0.959476 c 0,0 -0.18691,0.03738 -0.523351,0.07476 -0.33644,0.03738 -0.411202,0.461047 -0.411202,0.461047 0,0 -0.224292,0.411203 -0.224292,0.660418 0,0.249215 -0.348912,0.822409 -0.373821,0.897173 -0.02491,0.07476 -0.423669,0.249215 -0.423669,0.249215 0,0 -0.274133,0.161989 -0.423662,0.249215 -0.14953,0.08723 -0.07476,0.411204 -0.07476,0.411204 0,0 0.249213,0.137067 0.423663,0.249213 0.174451,0.112148 0.859792,-0.124605 0.859792,-0.124605 0,0 0.498425,-0.411205 0.610573,-0.485971 0.112149,-0.07476 0.398742,-0.672879 0.398742,-0.672879 l 0.286599,-0.747643 0.199372,0.186911 0.461049,0.386283 0.498425,0.411204 0.510891,0.68534 0.585658,0.897172 0.0623,0.49843 -0.411203,0.336439 v 0.49843 l -0.17445,0.0623 0.03736,0.361361 -0.224292,0.386282 h -0.48597 l -1.059162,-0.149529 -0.872252,-0.199372 0.386282,0.261675 0.560732,0.436127 h -0.174447 l -1.395597,-0.299057 -1.146391,-0.361363 -1.270994,-0.04984 h -1.906493 c 0,0 -0.685341,-0.436126 -2.006177,-0.647957 -1.320835,-0.211833 -2.168166,0.199371 -2.978111,0.448586 -0.80995,0.249214 -1.545133,1.258533 -1.545133,1.258533 0,0 -1.021792,1.6822 -1.046702,1.133926 -0.02491,-0.548272 0.436123,-1.756961 0.436123,-1.756961 l 0.610579,-0.897175 c 0,0 0.722723,-0.809946 1.183766,-1.333297 0.46105,-0.523352 0.124609,-1.146387 0.124609,-1.146387 l -0.523351,-0.8224 -1.171305,-1.408063 -1.071623,-1.071622 -1.12147,-1.171309 -0.199371,-0.623036 -0.348899,-1.171309 -0.573193,-1.071623 -0.348901,-0.971938 0.348901,-0.04984 1.071622,0.149528 1.644815,0.274137 3.239789,0.647957 2.816127,0.04984 0.07477,0.760104 0.872252,0.922094 0.984394,0.436126 0.436129,-0.186911 z"
       id="path4167"
       inkscape:connector-curvature="0" />
    <path
       style="fill:#000000;stroke:#000000;stroke-width:0.40820399;stroke-linecap:butt;stroke-linejoin:miter;stroke-miterlimit:4;stroke-dasharray:none;stroke-opacity:1;filter:url(#filter14081)"
       d="m 155.19017,10.017513 c -2.28139,-0.06915 -4.80475,-0.3111679 -4.80475,-0.3111679 0,0 -2.00486,0 -2.73076,0.03458 -0.7259,0.03458 -6.94788,1.7632859 -8.64165,4.2180599 -1.69376,2.454774 -3.45665,5.843054 -3.45665,5.843054 l -0.38024,2.385625 c 0,0 0,0.65691 0.38024,0.691485 0.38023,0.03458 1.03699,-0.48404 1.14069,-0.968078 0.1037,-0.484041 0.0346,1.867009 -0.6222,2.835088 -0.65676,0.968079 -1.65919,2.800517 -1.65919,2.800517 0,0 0.27653,1.106376 -1.20983,3.803163 -1.48637,2.696796 -0.58763,3.872324 -0.58763,3.872324 l 0.38023,0.449466 5.80718,-0.172881 0.17284,-1.348392 -0.4148,-0.760634 c 0,0 -0.24197,0.06915 -0.44937,0 -0.2074,-0.06915 -0.55306,-0.345745 -0.44936,-0.760634 0.1037,-0.414894 0.79503,-1.175517 1.037,-1.348392 0.24196,-0.17287 1.27896,-1.521267 1.27896,-1.521267 l 0.86416,2.835082 c 0,0 0.27654,1.071807 0.55307,1.486701 0.27653,0.414889 0.96786,1.31381 1.1407,1.452113 0.17283,0.138304 5.53065,0 5.53065,0 l -0.44937,-1.382969 c 0,0 -0.58763,-0.553187 -1.41723,-0.864355 -0.82959,-0.311173 -1.07156,-1.417541 -1.07156,-1.417541 l -0.1037,-2.869665 c 0,0 0.17283,-1.797861 0.5185,-2.212753 0.34567,-0.414891 3.18012,0.656911 3.18012,0.656911 0,0 2.21227,0.345742 2.86903,0.380318 0.65677,0.03458 2.73076,-0.587763 3.56036,-0.864358 0.8296,-0.276593 1.83203,-1.175525 1.83203,-1.175525 0,0 -0.24197,3.353705 -0.5185,3.734021 -0.27653,0.380318 0.5185,3.803164 0.5185,3.803164 0,0 0.76046,2.143603 1.55549,2.143603 0.79504,0 4.80476,0.06915 4.80476,0.06915 0,0 0.13827,-1.970728 -0.8296,-2.17818 -0.96786,-0.207442 -1.59006,-0.62233 -1.45181,-1.486685 0.13828,-0.864366 1.24441,-3.803169 1.62464,-4.079765 0.38024,-0.276593 0.86417,2.316473 1.037,2.558492 0.17284,0.242019 2.1777,2.800516 2.1777,2.800516 0,0 2.97272,2.351045 3.18012,2.351045 0.2074,0 4.2517,0 4.2517,0 0,0 -0.72591,-1.901579 -2.31597,-2.351045 -1.59006,-0.44946 -2.03943,-3.941461 -2.03943,-3.941461 0,0 -0.5185,-2.247329 -0.44935,-2.593071 0.0691,-0.345743 0.0691,-1.555843 0.0691,-1.555843 l -0.5185,-1.624991 0.76046,-1.140951 1.48636,0.414892 c 0,0 2.24683,-0.172872 2.66164,-0.06915 0.4148,0.103723 2.35052,0.72606 2.35052,0.72606 0,0 1.037,-0.03458 1.52094,-0.311169 0.48393,-0.276593 1.07156,-0.380317 1.07156,-0.380317 0,0 0.55306,-0.829781 0.27653,-0.864356 -0.27653,-0.03458 0.93329,-0.103723 0.62219,-1.279248 -0.31109,-1.175526 -1.20982,-1.763289 -1.24438,-2.143606 -0.0345,-0.380317 -0.65678,-0.656911 -0.65678,-0.656911 l -0.24197,-2.316475 c 0,0 -0.69132,-1.763289 -1.10612,-2.385626 -0.4148,-0.622336 -2.14313,-1.62499 -2.14313,-1.62499 l -1.27896,-0.414892 0.17283,-0.933504 c 0,0 -0.51849,-1.1409494 -1.41723,-0.5877626 -0.89873,0.5531876 -1.20983,1.0026526 -1.20983,1.0026526 l -2.21226,0.345742 c 0,0 -3.35295,-0.518614 -3.56036,-0.656909 -0.2074,-0.138298 -3.45666,-0.6569126 -3.45666,-0.6569126 0,0 -1.90116,0.2074467 -2.83446,0.4494657 -0.93329,0.2420189 -2.45423,0.06915 -2.45423,0.06915 z"
       id="path1119-1"
       inkscape:connector-curvature="0" />
    <path
       style="fill:#ffffff;stroke:#ffffff;stroke-width:0.147772px;stroke-linecap:butt;stroke-linejoin:miter;stroke-opacity:1;filter:url(#filter14077)"
       d="m 155.18218,11.302235 c -1.37453,0.07049 -3.91212,-0.387688 -3.91212,-0.387688 0,0 -6.1325,0.03525 -8.74057,1.867948 -2.60808,1.832701 -4.01785,4.616999 -4.01785,4.616999 0,0 -0.9516,2.39661 -1.12782,4.088335 -0.17622,1.691724 0.81062,3.841626 1.02209,4.088336 0.21146,0.246709 1.44501,-1.691726 1.44501,-1.691726 0,0 1.62124,-1.374526 2.43186,-1.480259 0.81061,-0.105733 2.78429,0.845862 2.92527,1.445015 0.14098,0.599153 0.0705,1.550749 0.0705,1.550749 l 4.89895,0.704884 2.00893,0.211466 2.99576,-2.008923 c 0,0 1.58599,-1.374526 0.56391,-4.123581 -1.02209,-2.749053 -0.91635,-6.555433 -0.91635,-6.555433 z"
       id="path2765-1"
       inkscape:connector-curvature="0" />
    <path
       style="fill:#ffffff;stroke:#ffffff;stroke-width:0.147772px;stroke-linecap:butt;stroke-linejoin:miter;stroke-opacity:1;filter:url(#filter14073)"
       d="m 171.5991,13.489029 -0.16199,-0.535811 c 0,0 -0.13706,-0.560732 -0.11215,-0.735182 0.0249,-0.174451 0.39875,-0.448588 0.39875,-0.448588 l 0.39874,0.04984 h 0.51089 l 0.89717,0.261676 1.24607,0.822408 1.00933,1.208691 0.47351,1.345759 -0.0997,0.959476 c 0,0 -0.18691,0.03738 -0.52336,0.07476 -0.33644,0.03738 -0.4112,0.461047 -0.4112,0.461047 0,0 -0.22429,0.411203 -0.22429,0.660418 0,0.249215 -0.34891,0.822409 -0.37382,0.897173 -0.0249,0.07476 -0.42367,0.249215 -0.42367,0.249215 0,0 -0.27413,0.161989 -0.42366,0.249215 -0.14953,0.08723 -0.0748,0.411204 -0.0748,0.411204 0,0 0.24921,0.137067 0.42366,0.249213 0.17445,0.112148 0.85979,-0.124605 0.85979,-0.124605 0,0 0.49843,-0.411205 0.61058,-0.485971 0.11215,-0.07476 0.39874,-0.672879 0.39874,-0.672879 l 0.2866,-0.747643 0.19937,0.186911 0.46105,0.386283 0.49842,0.411204 0.51089,0.68534 0.58566,0.897172 0.0623,0.49843 -0.4112,0.336439 v 0.49843 l -0.17445,0.0623 0.0374,0.361361 -0.22429,0.386282 h -0.48597 l -1.05916,-0.149529 -0.87226,-0.199372 0.38629,0.261675 0.56073,0.436127 h -0.17445 l -1.3956,-0.299057 -1.14639,-0.361363 -1.27099,-0.04984 h -1.90649 c 0,0 -0.68535,-0.436126 -2.00618,-0.647957 -1.32084,-0.211833 -2.16817,0.199371 -2.97811,0.448586 -0.80995,0.249214 -1.54514,1.258533 -1.54514,1.258533 0,0 -1.02179,1.6822 -1.0467,1.133926 -0.0249,-0.548272 0.43613,-1.756961 0.43613,-1.756961 l 0.61057,-0.897175 c 0,0 0.72273,-0.809946 1.18377,-1.333297 0.46105,-0.523352 0.12461,-1.146387 0.12461,-1.146387 l -0.52335,-0.8224 -1.17131,-1.408063 -1.07162,-1.071622 -1.12147,-1.171309 -0.19937,-0.623036 -0.3489,-1.171309 -0.57319,-1.071623 -0.3489,-0.971938 0.3489,-0.04984 1.07162,0.149528 1.64481,0.274137 3.23979,0.647957 2.81613,0.04984 0.0748,0.760104 0.87225,0.922094 0.9844,0.436126 0.43613,-0.186911 z"
       id="path4167-1"
       inkscape:connector-curvature="0" />
    <rect
       style="fill:#000000;stroke:#000000;stroke-width:0.0432153"
       id="rect32636"
       width="1.1676078"
       height="9.4839077"
       x="83.912277"
       y="18.606493"
       ry="0.67742205" />
    <rect
       style="fill:#000000;stroke:#000000;stroke-width:0.0314849"
       id="rect32636-2"
       width="1.1743219"
       height="5.0052524"
       x="87.364113"
       y="20.802761"
       ry="0.35751805" />
    <rect
       style="fill:#000000;stroke:#000000;stroke-width:0.0399977"
       id="rect32636-4"
       width="1.1721017"
       height="8.0930738"
       x="91.086205"
       y="19.202219"
       ry="0.57807666" />
    <rect
       style="fill:#000000;stroke:#000000;stroke-width:0.0480499"
       id="rect32636-4-3"
       width="1.1701378"
       height="11.699242"
       x="93.960312"
       y="16.551893"
       ry="0.8356601" />
    <rect
       style="fill:#000000;stroke:#000000;stroke-width:0.0401816"
       id="rect32636-8"
       width="1.1694514"
       height="8.1861591"
       x="80.349838"
       y="19.320438"
       ry="0.58472568" />
    <rect
       style="fill:#000000;stroke:#000000;stroke-width:0.044581"
       id="rect32636-0"
       width="1.2427595"
       height="9.4825916"
       x="-105.69982"
       y="18.565907"
       ry="0.67732805"
       transform="scale(-1,1)" />
    <rect
       style="fill:#000000;stroke:#000000;stroke-width:0.0324801"
       id="rect32636-2-3"
       width="1.2499056"
       height="5.0045581"
       x="-102.02583"
       y="20.761871"
       ry="0.35746846"
       transform="scale(-1,1)" />
    <rect
       style="fill:#000000;stroke:#000000;stroke-width:0.0412621"
       id="rect32636-4-5"
       width="1.2475425"
       height="8.0919514"
       x="-98.064163"
       y="19.161552"
       ry="0.57799649"
       transform="scale(-1,1)" />
    <rect
       style="fill:#000000;stroke:#000000;stroke-width:0.0414517"
       id="rect32636-8-8"
       width="1.2447215"
       height="8.1850233"
       x="-109.49156"
       y="19.279753"
       ry="0.58464456"
       transform="scale(-1,1)" />
    <text
       xml:space="preserve"
       style="font-style:normal;font-weight:normal;font-size:5.69719982px;line-height:1.25;font-family:sans-serif;fill:#000000;fill-opacity:1;stroke:none;stroke-width:0.14242999"
       x="19.286741"
       y="42.455631"
       id="text7745"><tspan
         sodipodi:role="line"
         id="tspan7743"
         style="stroke-width:0.14242999"
         x="19.286741"
         y="42.455631">&quot;Panda&quot;</tspan></text>
    <text
       xml:space="preserve"
       style="font-style:normal;font-weight:normal;font-size:5.69719982px;line-height:1.25;font-family:sans-serif;fill:#000000;fill-opacity:1;stroke:none;stroke-width:0.14242999"
       x="140.39433"
       y="42.695137"
       id="text7745-3"><tspan
         sodipodi:role="line"
         id="tspan7743-6"
         style="stroke-width:0.14242999"
         x="140.39433"
         y="42.695137">&quot;Gibbon&quot;</tspan></text>
    <text
       xml:space="preserve"
       style="font-style:normal;font-weight:normal;font-size:5.69719982px;line-height:1.25;font-family:sans-serif;fill:#000000;fill-opacity:1;stroke:none;stroke-width:0.14242999"
       x="88.235138"
       y="42.243511"
       id="text7745-7"><tspan
         sodipodi:role="line"
         id="tspan7743-5"
         style="stroke-width:0.14242999"
         x="88.235138"
         y="42.243511">Noise</tspan></text>
    <use
       id="use10402"
       transform="matrix(0.62668942,0,0,0.62668942,63.152108,17.539527)"
       style="fill:#000000;stroke:#000000"
       xlink:href="#FirstAid"
       x="0"
       y="0"
       width="100%"
       height="100%" />
    <use
       id="use10427"
       transform="matrix(0.67476728,0,0,0.67476728,115.54136,16.832051)"
       style="fill:#000000;stroke:#000000"
       xlink:href="#RightArrow"
       x="0"
       y="0"
       width="100%"
       height="100%" />
  </g>
</svg>
