<?xml version="1.0" encoding="UTF-8" standalone="no"?>
<svg
   xmlns:serif="http://www.serif.com/"
   xmlns:dc="http://purl.org/dc/elements/1.1/"
   xmlns:cc="http://creativecommons.org/ns#"
   xmlns:rdf="http://www.w3.org/1999/02/22-rdf-syntax-ns#"
   xmlns:svg="http://www.w3.org/2000/svg"
   xmlns="http://www.w3.org/2000/svg"
   id="svg70"
   style="clip-rule:evenodd;fill-rule:evenodd;stroke-linecap:round;stroke-linejoin:round;stroke-miterlimit:1.5"
   xml:space="preserve"
   version="1.1"
   viewBox="0 0 30 30"
   height="30"
   width="30"><metadata
     id="metadata76"><rdf:RDF><cc:Work
         rdf:about=""><dc:format>image/svg+xml</dc:format><dc:type
           rdf:resource="http://purl.org/dc/dcmitype/StillImage" /><dc:title></dc:title></cc:Work></rdf:RDF></metadata><defs
     id="defs74" /><g
     transform="matrix(0.03526224,0,0,0.03526224,1.0652619,-6.3185854e-4)"
     id="g115"><path
       id="Weißer-Rand"
       serif:id="Weißer Rand"
       d="m 394.557,834.097 c -12.122,-7.454 -24.19,-14.994 -36.374,-22.342 -13.681,-8.25 -30.139,-16.826 -44.478,-26.402 -14.826,-9.9 -31.299,-22.001 -44.478,-33.002 -12.234,-10.212 -23.68,-21.387 -34.594,-33.002 -13.179,-14.026 -31.574,-35.753 -44.479,-51.154 -11.301,-13.489 -22.832,-27.227 -32.946,-41.253 -9.961,-13.812 -19.063,-28.249 -27.741,-42.903 -9.61,-16.227 -21.05,-35.736 -29.916,-54.454 C 90.172,509.783 80.911,487.09 73.193,465.23 65.231,442.678 57.818,416.001 51.778,394.275 46.311,374.612 40.994,354.876 36.952,334.87 32.284,311.769 27.002,282.235 23.773,255.665 19.929,224.037 13.889,145.107 13.889,145.107 l 98.835,-10.262 c 0,0 93.01,-53.335 133.069,-71.137 19.071,-8.475 53.458,-22.277 74.268,-28.972 15.663,-5.039 32.383,-10.959 43.241,-14.113 1.758,-0.511 3.384,-0.997 4.9,-1.458 13.486,-4.099 22.992,-4.416 27.59,-5.276 0.038,-0.007 0,0.116 0,0.116 9.641,-0.694 14.558,1.767 31.255,6.618 10.858,3.154 27.578,9.074 43.241,14.113 20.809,6.695 55.197,20.497 74.268,28.972 40.058,17.802 133.069,71.137 133.069,71.137 l 98.835,10.262 c 0,0 -6.04,78.93 -9.884,110.558 -3.229,26.57 -8.511,56.104 -13.179,79.205 -4.042,20.006 -9.359,39.742 -14.826,59.405 -6.04,21.726 -13.453,48.403 -21.415,70.955 -7.718,21.86 -16.979,44.553 -26.358,64.355 -8.866,18.718 -20.306,38.227 -29.916,54.454 -8.678,14.654 -17.78,29.091 -27.741,42.903 -10.114,14.026 -21.645,27.764 -32.947,41.253 -12.904,15.401 -31.299,37.128 -44.478,51.154 -10.914,11.615 -22.361,22.79 -34.594,33.002 -13.179,11.001 -29.652,23.102 -44.478,33.002 -14.34,9.576 -30.797,18.152 -44.478,26.402 -12.185,7.348 -24.252,14.888 -36.374,22.342 v 0.76 l -0.618,-0.38 -0.617,0.38 z"
       style="fill:#ffffff;stroke:#ffffff;stroke-width:27.78000069px" /><path
       id="Schild"
       d="M 394.578,819.275 C 382.875,812.09 371.225,804.823 359.461,797.741 346.253,789.789 330.364,781.524 316.52,772.294 302.206,762.752 286.302,751.089 273.578,740.486 261.768,730.643 250.716,719.873 240.18,708.677 227.456,695.159 209.696,674.218 197.238,659.374 186.327,646.373 175.195,633.132 165.43,619.613 155.813,606.301 147.026,592.387 138.647,578.262 129.37,562.623 118.324,543.82 109.765,525.778 100.71,506.693 91.769,484.821 84.318,463.752 76.631,442.016 69.474,416.304 63.642,395.364 58.365,376.412 53.231,357.39 49.329,338.108 44.822,315.842 39.723,287.377 36.605,261.768 32.894,231.285 27.063,155.21 27.063,155.21 l 95.42,-9.891 c 0,0 89.797,-51.405 128.471,-68.563 18.413,-8.169 51.612,-21.471 71.702,-27.924 15.122,-4.857 31.264,-10.562 41.747,-13.603 1.697,-0.492 3.268,-0.961 4.731,-1.405 13.02,-3.951 22.197,-4.256 26.637,-5.085 0.036,-0.007 0,0.112 0,0.112 9.307,-0.669 14.055,1.703 30.175,6.378 10.483,3.041 26.625,8.746 41.746,13.603 20.091,6.453 53.29,19.755 71.703,27.924 38.674,17.158 128.471,68.563 128.471,68.563 l 95.42,9.891 c 0,0 -5.831,76.075 -9.542,106.558 -3.118,25.609 -8.217,54.074 -12.724,76.34 -3.902,19.282 -9.036,38.304 -14.314,57.256 -5.831,20.94 -12.988,46.652 -20.675,68.388 -7.451,21.069 -16.392,42.941 -25.447,62.026 -8.559,18.042 -19.605,36.845 -28.882,52.484 -8.379,14.125 -17.166,28.039 -26.783,41.351 -9.765,13.519 -20.897,26.76 -31.808,39.761 -12.459,14.844 -30.218,35.785 -42.942,49.303 -10.537,11.196 -21.588,21.966 -33.399,31.809 -12.723,10.603 -28.627,22.266 -42.941,31.808 -13.844,9.23 -29.733,17.495 -42.941,25.447 -11.764,7.082 -23.414,14.349 -35.117,21.534 v 0.732 l -0.597,-0.366 -0.596,0.366 z"
       style="fill:#ffffff;stroke:#15346d;stroke-width:27.78000069px" /><g
       id="g26"><g
         id="Gehirn"><path
           d="M 395.061,217.453 V 631.125"
           style="fill:none;stroke:#1c3667;stroke-width:10.51000023px"
           id="path4" /><path
           d="m 395.061,631.125 c -5.121,4.733 -10.385,9.599 -16.642,12.679 -10.911,5.373 -29.174,3.169 -39.691,-0.754 -17.396,-6.489 -19.782,-7.742 -31.65,-24.491 -3.44,-4.854 -5.103,-9.015 -5.408,-12.953"
           style="fill:none;stroke:#1c3667;stroke-width:10.51000023px"
           id="path6" /><path
           d="m 338.728,591.282 c -5.616,2.992 -10.935,6.623 -16.847,8.977 -5.933,2.361 -12.453,4.804 -18.747,5.193 -6.294,0.39 -13.242,0.035 -19.185,-1.028 -5.582,-0.999 -11.505,-3.31 -16.476,-5.352 -4.876,-2.003 -9.572,-4.891 -13.186,-8.729 -4.22,-4.482 -9.936,-11.527 -12.133,-18.161 -2.198,-6.634 -1.492,-15.486 -1.052,-21.643 0.373,-5.234 0.988,-10.852 3.689,-15.304 2.701,-4.452 12.517,-11.409 12.517,-11.409 0,0 -14.668,-0.915 -20.742,-3.196 -6.107,-2.293 -17.367,-11.096 -17.367,-11.096 0,0 -0.524,-0.407 -3.324,-3.058 -3.302,-3.126 -6.856,-9.237 -10.108,-15.7 -3.134,-6.229 -5.652,-13.057 -6.08,-20.018 -0.446,-7.251 1.087,-16.262 3.403,-23.487 2.286,-7.132 6.866,-14.844 10.494,-19.866 2.977,-4.119 11.274,-10.262 11.274,-10.262 0,0 -11.003,-8.174 -13.843,-13.212 -2.932,-5.199 -4.796,-12.434 -6.34,-17.981 -1.393,-5.003 -2.212,-10.159 -2.924,-15.303 -0.76,-5.498 -1.502,-11.764 -1.639,-17.681 -0.141,-6.117 -0.138,-12.944 0.793,-19.02 0.913,-5.957 2.693,-11.785 4.795,-17.434 2.113,-5.679 4.574,-11.835 7.625,-17.161 3.031,-5.292 6.467,-12.457 10.562,-17.708 3.994,-5.123 8.985,-9.494 14.264,-13.28 5.331,-3.824 12.57,-7.648 17.721,-9.661 4.162,-1.627 9.78,-1.883 13.186,-2.418 2.402,-0.377 4.824,-0.949 7.25,-0.793 4.095,0.265 12.218,0.86 17.316,2.378 4.755,1.415 9.298,3.97 13.276,6.729 3.956,2.744 7.059,6.549 10.588,9.823"
           style="fill:none;stroke:#1c3667;stroke-width:10.51000023px"
           id="path8" /><path
           d="m 270.491,255.491 c 2.847,-5.935 5.722,-11.93 9.557,-17.28 3.197,-4.461 7.163,-8.383 11.368,-11.91 12.221,-10.251 28.354,-16.236 43.417,-20.736 16.311,-4.872 35.344,-5.567 51.549,0.774 3.201,1.252 4.694,2.857 6.81,5.566 1.138,1.458 2.365,3.766 1.869,5.548"
           style="fill:none;stroke:#1c3667;stroke-width:10.51000023px"
           id="path10" /></g><g
         id="Gehirn-Innen"
         serif:id="Gehirn Innen"><path
           d="m 395.061,365.784 h -46.695 v -52.62 h -33.558"
           style="fill:none;stroke:#1c3667;stroke-width:10.51000023px"
           id="path13" /><path
           d="m 395.061,465.319 h -68.208 l -0.634,50.915"
           style="fill:none;stroke:#1c3667;stroke-width:10.51000023px"
           id="path15" /><path
           d="m 226.472,416.245 h 36.615"
           style="fill:none;stroke:#1c3667;stroke-width:10.51000023px"
           id="path17" /><circle
           cx="326.12299"
           cy="541.08197"
           r="19.483"
           style="fill:none;stroke:#1c3667;stroke-width:10.51000023px"
           id="circle19" /><circle
           cx="287.15701"
           cy="313.39001"
           r="19.483"
           style="fill:none;stroke:#1c3667;stroke-width:10.51000023px"
           id="circle21" /><circle
           cx="287.15701"
           cy="415.45599"
           r="19.483"
           style="fill:none;stroke:#1c3667;stroke-width:10.51000023px"
           id="circle23" /></g></g><g
       id="Chip"><clipPath
         id="_clip1"><rect
           x="395.17401"
           y="179.407"
           width="248.73"
           height="489.93301"
           id="rect28" /></clipPath><g
         clip-path="url(#_clip1)"
         id="g67"><path
           d="m 554.37,307.536 c 0,-27.451 -22.287,-49.739 -49.739,-49.739 h -99.478 c -27.452,0 -49.739,22.288 -49.739,49.739 v 218.607 c 0,27.452 22.287,49.739 49.739,49.739 h 99.478 c 27.452,0 49.739,-22.287 49.739,-49.739 z"
           style="fill:none;stroke:#1c3667;stroke-width:10.51000023px"
           id="path31" /><path
           d="m 454.892,455.805 v 78.726"
           style="fill:none;stroke:#1c3667;stroke-width:10.51000023px"
           id="path33" /><circle
           cx="454.892"
           cy="436.32199"
           r="19.483"
           style="fill:none;stroke:#1c3667;stroke-width:10.51000023px"
           id="circle35" /><path
           d="M 448.361,257.797 V 190.551"
           style="fill:none;stroke:#1c3667;stroke-width:10.51000023px"
           id="path37" /><path
           d="M 446.771,645.066 V 577.819"
           style="fill:none;stroke:#1c3667;stroke-width:10.51000023px"
           id="path39" /><path
           d="m 554.37,308.466 h 67.246"
           style="fill:none;stroke:#1c3667;stroke-width:10.51000023px"
           id="path41" /><path
           d="m 554.37,416.84 h 67.246"
           style="fill:none;stroke:#1c3667;stroke-width:10.51000023px"
           id="path43" /><path
           d="m 554.37,521.808 h 67.246"
           style="fill:none;stroke:#1c3667;stroke-width:10.51000023px"
           id="path45" /><path
           d="M 503.83,257.797 V 213.612"
           style="fill:none;stroke:#1c3667;stroke-width:10.51000023px"
           id="path47" /><path
           d="M 503.83,622.004 V 577.819"
           style="fill:none;stroke:#1c3667;stroke-width:10.51000023px"
           id="path49" /><path
           d="m 554.37,361.572 h 44.185"
           style="fill:none;stroke:#1c3667;stroke-width:10.51000023px"
           id="path51" /><path
           d="m 554.37,468.131 h 44.185"
           style="fill:none;stroke:#1c3667;stroke-width:10.51000023px"
           id="path53" /><path
           d="M 395.174,410.825 448.361,355.16 V 299.148"
           style="fill:none;stroke:#1c3667;stroke-width:10.51000023px"
           id="path55" /><path
           d="m 355.414,299.148 c 0,0 118.279,-2.112 144.738,0 2.459,0.197 6.65,1.198 9.036,3.506 3.778,3.655 4.98,9.167 4.98,9.167 v 21.868"
           style="fill:none;stroke:#1c3667;stroke-width:10.51000023px"
           id="path57" /><path
           d="M 514.168,379.811 V 468.08"
           style="fill:none;stroke:#1c3667;stroke-width:10.51000023px"
           id="path59" /><path
           d="m 514.168,511.101 c -0.284,1.724 0.34,6.844 0,8.986 -0.513,3.232 -3.903,9.043 -8.191,10.974 -4.11,1.85 -9.649,3.354 -14.675,3.47 -25.093,0.579 -98.957,0.193 -135.888,0"
           style="fill:none;stroke:#1c3667;stroke-width:10.51000023px"
           id="path61" /><circle
           cx="514.16803"
           cy="489.90701"
           r="6.7690001"
           style="fill:#1c3667;stroke:#1c3667;stroke-width:1.94000006px"
           id="circle63" /><circle
           cx="514.16803"
           cy="357.10699"
           r="6.7690001"
           style="fill:#1c3667;stroke:#1c3667;stroke-width:1.94000006px"
           id="circle65" /></g></g></g></svg>