<?xml version="1.0" encoding="UTF-8" standalone="no"?><!DOCTYPE svg PUBLIC "-//W3C//DTD SVG 1.1//EN" "http://www.w3.org/Graphics/SVG/1.1/DTD/svg11.dtd"><svg width="100%" height="100%" viewBox="0 0 791 849" version="1.1" xmlns="http://www.w3.org/2000/svg" xmlns:xlink="http://www.w3.org/1999/xlink" xml:space="preserve" xmlns:serif="http://www.serif.com/" style="fill-rule:evenodd;clip-rule:evenodd;stroke-linecap:round;stroke-linejoin:round;stroke-miterlimit:1.5;"><path id="Weißer-Rand" serif:id="Weißer Rand" d="M394.557,834.097c-12.122,-7.454 -24.19,-14.994 -36.374,-22.342c-13.681,-8.25 -30.139,-16.826 -44.478,-26.402c-14.826,-9.9 -31.299,-22.001 -44.478,-33.002c-12.234,-10.212 -23.68,-21.387 -34.594,-33.002c-13.179,-14.026 -31.574,-35.753 -44.479,-51.154c-11.301,-13.489 -22.832,-27.227 -32.946,-41.253c-9.961,-13.812 -19.063,-28.249 -27.741,-42.903c-9.61,-16.227 -21.05,-35.736 -29.916,-54.454c-9.379,-19.802 -18.64,-42.495 -26.358,-64.355c-7.962,-22.552 -15.375,-49.229 -21.415,-70.955c-5.467,-19.663 -10.784,-39.399 -14.826,-59.405c-4.668,-23.101 -9.95,-52.635 -13.179,-79.205c-3.844,-31.628 -9.884,-110.558 -9.884,-110.558l98.835,-10.262c0,0 93.01,-53.335 133.069,-71.137c19.071,-8.475 53.458,-22.277 74.268,-28.972c15.663,-5.039 32.383,-10.959 43.241,-14.113c1.758,-0.511 3.384,-0.997 4.9,-1.458c13.486,-4.099 22.992,-4.416 27.59,-5.276c0.038,-0.007 0,0.116 0,0.116c9.641,-0.694 14.558,1.767 31.255,6.618c10.858,3.154 27.578,9.074 43.241,14.113c20.809,6.695 55.197,20.497 74.268,28.972c40.058,17.802 133.069,71.137 133.069,71.137l98.835,10.262c0,-0 -6.04,78.93 -9.884,110.558c-3.229,26.57 -8.511,56.104 -13.179,79.205c-4.042,20.006 -9.359,39.742 -14.826,59.405c-6.04,21.726 -13.453,48.403 -21.415,70.955c-7.718,21.86 -16.979,44.553 -26.358,64.355c-8.866,18.718 -20.306,38.227 -29.916,54.454c-8.678,14.654 -17.78,29.091 -27.741,42.903c-10.114,14.026 -21.645,27.764 -32.947,41.253c-12.904,15.401 -31.299,37.128 -44.478,51.154c-10.914,11.615 -22.361,22.79 -34.594,33.002c-13.179,11.001 -29.652,23.102 -44.478,33.002c-14.34,9.576 -30.797,18.152 -44.478,26.402c-12.185,7.348 -24.252,14.888 -36.374,22.342l0,0.76l-0.618,-0.38l-0.617,0.38l-0,-0.76Z" style="fill:#fff;stroke:#fff;stroke-width:27.78px;"/><path id="Schild" d="M394.578,819.275c-11.703,-7.185 -23.353,-14.452 -35.117,-21.534c-13.208,-7.952 -29.097,-16.217 -42.941,-25.447c-14.314,-9.542 -30.218,-21.205 -42.942,-31.808c-11.81,-9.843 -22.862,-20.613 -33.398,-31.809c-12.724,-13.518 -30.484,-34.459 -42.942,-49.303c-10.911,-13.001 -22.043,-26.242 -31.808,-39.761c-9.617,-13.312 -18.404,-27.226 -26.783,-41.351c-9.277,-15.639 -20.323,-34.442 -28.882,-52.484c-9.055,-19.085 -17.996,-40.957 -25.447,-62.026c-7.687,-21.736 -14.844,-47.448 -20.676,-68.388c-5.277,-18.952 -10.411,-37.974 -14.313,-57.256c-4.507,-22.266 -9.606,-50.731 -12.724,-76.34c-3.711,-30.483 -9.542,-106.558 -9.542,-106.558l95.42,-9.891c0,0 89.797,-51.405 128.471,-68.563c18.413,-8.169 51.612,-21.471 71.702,-27.924c15.122,-4.857 31.264,-10.562 41.747,-13.603c1.697,-0.492 3.268,-0.961 4.731,-1.405c13.02,-3.951 22.197,-4.256 26.637,-5.085c0.036,-0.007 -0,0.112 -0,0.112c9.307,-0.669 14.055,1.703 30.175,6.378c10.483,3.041 26.625,8.746 41.746,13.603c20.091,6.453 53.29,19.755 71.703,27.924c38.674,17.158 128.471,68.563 128.471,68.563l95.42,9.891c0,-0 -5.831,76.075 -9.542,106.558c-3.118,25.609 -8.217,54.074 -12.724,76.34c-3.902,19.282 -9.036,38.304 -14.314,57.256c-5.831,20.94 -12.988,46.652 -20.675,68.388c-7.451,21.069 -16.392,42.941 -25.447,62.026c-8.559,18.042 -19.605,36.845 -28.882,52.484c-8.379,14.125 -17.166,28.039 -26.783,41.351c-9.765,13.519 -20.897,26.76 -31.808,39.761c-12.459,14.844 -30.218,35.785 -42.942,49.303c-10.537,11.196 -21.588,21.966 -33.399,31.809c-12.723,10.603 -28.627,22.266 -42.941,31.808c-13.844,9.23 -29.733,17.495 -42.941,25.447c-11.764,7.082 -23.414,14.349 -35.117,21.534l-0,0.732l-0.597,-0.366l-0.596,0.366l0,-0.732Z" style="fill:#fff;stroke:#15346d;stroke-width:27.78px;"/><g><g id="Gehirn"><path d="M395.061,217.453l0,413.672" style="fill:none;stroke:#1c3667;stroke-width:10.51px;"/><path d="M395.061,631.125c-5.121,4.733 -10.385,9.599 -16.642,12.679c-10.911,5.373 -29.174,3.169 -39.691,-0.754c-17.396,-6.489 -19.782,-7.742 -31.65,-24.491c-3.44,-4.854 -5.103,-9.015 -5.408,-12.953" style="fill:none;stroke:#1c3667;stroke-width:10.51px;"/><path d="M338.728,591.282c-5.616,2.992 -10.935,6.623 -16.847,8.977c-5.933,2.361 -12.453,4.804 -18.747,5.193c-6.294,0.39 -13.242,0.035 -19.185,-1.028c-5.582,-0.999 -11.505,-3.31 -16.476,-5.352c-4.876,-2.003 -9.572,-4.891 -13.186,-8.729c-4.22,-4.482 -9.936,-11.527 -12.133,-18.161c-2.198,-6.634 -1.492,-15.486 -1.052,-21.643c0.373,-5.234 0.988,-10.852 3.689,-15.304c2.701,-4.452 12.517,-11.409 12.517,-11.409c-0,0 -14.668,-0.915 -20.742,-3.196c-6.107,-2.293 -17.367,-11.096 -17.367,-11.096c-0,0 -0.524,-0.407 -3.324,-3.058c-3.302,-3.126 -6.856,-9.237 -10.108,-15.7c-3.134,-6.229 -5.652,-13.057 -6.08,-20.018c-0.446,-7.251 1.087,-16.262 3.403,-23.487c2.286,-7.132 6.866,-14.844 10.494,-19.866c2.977,-4.119 11.274,-10.262 11.274,-10.262c0,-0 -11.003,-8.174 -13.843,-13.212c-2.932,-5.199 -4.796,-12.434 -6.34,-17.981c-1.393,-5.003 -2.212,-10.159 -2.924,-15.303c-0.76,-5.498 -1.502,-11.764 -1.639,-17.681c-0.141,-6.117 -0.138,-12.944 0.793,-19.02c0.913,-5.957 2.693,-11.785 4.795,-17.434c2.113,-5.679 4.574,-11.835 7.625,-17.161c3.031,-5.292 6.467,-12.457 10.562,-17.708c3.994,-5.123 8.985,-9.494 14.264,-13.28c5.331,-3.824 12.57,-7.648 17.721,-9.661c4.162,-1.627 9.78,-1.883 13.186,-2.418c2.402,-0.377 4.824,-0.949 7.25,-0.793c4.095,0.265 12.218,0.86 17.316,2.378c4.755,1.415 9.298,3.97 13.276,6.729c3.956,2.744 7.059,6.549 10.588,9.823" style="fill:none;stroke:#1c3667;stroke-width:10.51px;"/><path d="M270.491,255.491c2.847,-5.935 5.722,-11.93 9.557,-17.28c3.197,-4.461 7.163,-8.383 11.368,-11.91c12.221,-10.251 28.354,-16.236 43.417,-20.736c16.311,-4.872 35.344,-5.567 51.549,0.774c3.201,1.252 4.694,2.857 6.81,5.566c1.138,1.458 2.365,3.766 1.869,5.548" style="fill:none;stroke:#1c3667;stroke-width:10.51px;"/></g><g id="Gehirn-Innen" serif:id="Gehirn Innen"><path d="M395.061,365.784l-46.695,0l-0,-52.62l-33.558,-0" style="fill:none;stroke:#1c3667;stroke-width:10.51px;"/><path d="M395.061,465.319l-68.208,-0l-0.634,50.915" style="fill:none;stroke:#1c3667;stroke-width:10.51px;"/><path d="M226.472,416.245l36.615,0" style="fill:none;stroke:#1c3667;stroke-width:10.51px;"/><circle cx="326.123" cy="541.082" r="19.483" style="fill:none;stroke:#1c3667;stroke-width:10.51px;"/><circle cx="287.157" cy="313.39" r="19.483" style="fill:none;stroke:#1c3667;stroke-width:10.51px;"/><circle cx="287.157" cy="415.456" r="19.483" style="fill:none;stroke:#1c3667;stroke-width:10.51px;"/></g></g><g id="Chip"><clipPath id="_clip1"><rect x="395.174" y="179.407" width="248.73" height="489.933"/></clipPath><g clip-path="url(#_clip1)"><path d="M554.37,307.536c-0,-27.451 -22.287,-49.739 -49.739,-49.739l-99.478,0c-27.452,0 -49.739,22.288 -49.739,49.739l-0,218.607c-0,27.452 22.287,49.739 49.739,49.739l99.478,0c27.452,0 49.739,-22.287 49.739,-49.739l-0,-218.607Z" style="fill:none;stroke:#1c3667;stroke-width:10.51px;"/><path d="M454.892,455.805l-0,78.726" style="fill:none;stroke:#1c3667;stroke-width:10.51px;"/><circle cx="454.892" cy="436.322" r="19.483" style="fill:none;stroke:#1c3667;stroke-width:10.51px;"/><path d="M448.361,257.797l-0,-67.246" style="fill:none;stroke:#1c3667;stroke-width:10.51px;"/><path d="M446.771,645.066l-0,-67.247" style="fill:none;stroke:#1c3667;stroke-width:10.51px;"/><path d="M554.37,308.466l67.246,0" style="fill:none;stroke:#1c3667;stroke-width:10.51px;"/><path d="M554.37,416.84l67.246,-0" style="fill:none;stroke:#1c3667;stroke-width:10.51px;"/><path d="M554.37,521.808l67.246,-0" style="fill:none;stroke:#1c3667;stroke-width:10.51px;"/><path d="M503.83,257.797l0,-44.185" style="fill:none;stroke:#1c3667;stroke-width:10.51px;"/><path d="M503.83,622.004l0,-44.185" style="fill:none;stroke:#1c3667;stroke-width:10.51px;"/><path d="M554.37,361.572l44.185,0" style="fill:none;stroke:#1c3667;stroke-width:10.51px;"/><path d="M554.37,468.131l44.185,-0" style="fill:none;stroke:#1c3667;stroke-width:10.51px;"/><path d="M395.174,410.825l53.187,-55.665l-0,-56.012" style="fill:none;stroke:#1c3667;stroke-width:10.51px;"/><path d="M355.414,299.148c-0,0 118.279,-2.112 144.738,0c2.459,0.197 6.65,1.198 9.036,3.506c3.778,3.655 4.98,9.167 4.98,9.167l-0,21.868" style="fill:none;stroke:#1c3667;stroke-width:10.51px;"/><path d="M514.168,379.811l-0,88.269" style="fill:none;stroke:#1c3667;stroke-width:10.51px;"/><path d="M514.168,511.101c-0.284,1.724 0.34,6.844 -0,8.986c-0.513,3.232 -3.903,9.043 -8.191,10.974c-4.11,1.85 -9.649,3.354 -14.675,3.47c-25.093,0.579 -98.957,0.193 -135.888,0" style="fill:none;stroke:#1c3667;stroke-width:10.51px;"/><circle cx="514.168" cy="489.907" r="6.769" style="fill:#1c3667;stroke:#1c3667;stroke-width:1.94px;"/><circle cx="514.168" cy="357.107" r="6.769" style="fill:#1c3667;stroke:#1c3667;stroke-width:1.94px;"/></g></g></svg>