<?xml version="1.0" encoding="UTF-8" standalone="no"?>
<svg
   xmlns:serif="http://www.serif.com/"
   xmlns:dc="http://purl.org/dc/elements/1.1/"
   xmlns:cc="http://creativecommons.org/ns#"
   xmlns:rdf="http://www.w3.org/1999/02/22-rdf-syntax-ns#"
   xmlns:svg="http://www.w3.org/2000/svg"
   xmlns="http://www.w3.org/2000/svg"
   xmlns:sodipodi="http://sodipodi.sourceforge.net/DTD/sodipodi-0.dtd"
   xmlns:inkscape="http://www.inkscape.org/namespaces/inkscape"
   width="30"
   height="30"
   viewBox="0 0 30 30"
   version="1.1"
   xml:space="preserve"
   style="clip-rule:evenodd;fill-rule:evenodd;stroke-linecap:round;stroke-linejoin:round;stroke-miterlimit:1.5"
   id="svg69"
   sodipodi:docname="logo.svg"
   inkscape:export-xdpi="7.4829254"
   inkscape:export-ydpi="7.4829254"
   inkscape:version="0.92.5 (2060ec1f9f, 2020-04-08)"><metadata
     id="metadata75"><rdf:RDF><cc:Work
         rdf:about=""><dc:format>image/svg+xml</dc:format><dc:type
           rdf:resource="http://purl.org/dc/dcmitype/StillImage" /><dc:title></dc:title></cc:Work></rdf:RDF></metadata><defs
     id="defs73" /><sodipodi:namedview
     pagecolor="#ffffff"
     bordercolor="#666666"
     borderopacity="1"
     objecttolerance="10"
     gridtolerance="10"
     guidetolerance="10"
     inkscape:pageopacity="0"
     inkscape:pageshadow="2"
     inkscape:window-width="1366"
     inkscape:window-height="1044"
     id="namedview71"
     showgrid="false"
     height="1"
     fit-margin-top="0"
     fit-margin-left="0"
     fit-margin-right="0"
     fit-margin-bottom="0"
     inkscape:zoom="9.2097561"
     inkscape:cx="4.6565125"
     inkscape:cy="10.722303"
     inkscape:window-x="3887"
     inkscape:window-y="883"
     inkscape:window-maximized="0"
     inkscape:current-layer="svg69" /><g
     id="g918"
     transform="matrix(0.03653772,0,0,0.03653772,1.0425398,1.0055057e-6)"
     inkscape:export-filename="/home/lawrence/Development/sensible-ki-testing/static/favicons/fav16-from32trial.png"
     inkscape:export-xdpi="51.200001"
     inkscape:export-ydpi="51.200001"><path
       inkscape:connector-curvature="0"
       style="fill:#ffffff;stroke:#15346d;stroke-width:27.78000069px"
       d="m 381.4049,804.40702 c -11.703,-7.185 -23.353,-14.452 -35.116,-21.534 -13.209,-7.952 -29.098,-16.217 -42.942,-25.447 -14.314,-9.542 -30.218,-21.205 -42.941,-31.808 -11.811,-9.842 -22.862,-20.613 -33.399,-31.809 -12.724,-13.518 -30.483,-34.459 -42.942,-49.303 -10.911,-13.001 -22.043,-26.242 -31.808,-39.76 -9.616,-13.313 -18.404,-27.227 -26.783,-41.352 -9.277,-15.639 -20.322,-34.442 -28.881999,-52.484 -9.055,-19.085 -17.996,-40.957 -25.447,-62.026 -7.687,-21.736 -14.844,-47.448 -20.675,-68.388 -5.278,-18.952 -10.412,-37.974 -14.314,-57.256 -4.506,-22.266 -9.606,-50.731 -12.724,-76.34 -3.711,-30.483 -9.542,-106.558 -9.542,-106.558 l 95.419999,-9.891 c 0,0 89.797,-51.405007 128.471,-68.563007 18.413,-8.169 51.612,-21.471 71.703,-27.924 15.121,-4.857 31.263,-10.562 41.746,-13.603 1.697,-0.492 3.268,-0.961 4.731,-1.405 13.02,-3.951 22.198,-4.256 26.637,-5.085 0.037,-0.007 0,0.112 0,0.112 9.308,-0.669 14.055,1.703 30.175,6.378 10.483,3.041 26.625,8.746 41.747,13.603 20.09,6.453 53.29,19.755 71.702,27.924 38.674,17.158 128.471,68.563007 128.471,68.563007 l 95.42,9.891 c 0,0 -5.831,76.075 -9.542,106.558 -3.118,25.609 -8.217,54.074 -12.724,76.34 -3.902,19.282 -9.036,38.304 -14.313,57.256 -5.832,20.94 -12.989,46.652 -20.676,68.388 -7.451,21.069 -16.392,42.941 -25.447,62.026 -8.559,18.042 -19.604,36.845 -28.882,52.484 -8.379,14.125 -17.166,28.039 -26.782,41.352 -9.766,13.518 -20.898,26.759 -31.809,39.76 -12.458,14.844 -30.218,35.785 -42.941,49.303 -10.537,11.196 -21.589,21.967 -33.399,31.809 -12.724,10.603 -28.628,22.266 -42.942,31.808 -13.844,9.23 -29.733,17.495 -42.941,25.447 -11.763,7.082 -23.414,14.349 -35.117,21.534 v 0.732 l -0.596,-0.366 -0.597,0.366 z"
       id="Schild" /><g
       transform="translate(9.0125948e-4,-0.01798612)"
       id="g25"><g
         id="Gehirn"><path
           inkscape:connector-curvature="0"
           id="path3"
           style="fill:none;stroke:#1c3667;stroke-width:10.51000023px"
           d="M 381.888,202.603 V 616.275" /><path
           inkscape:connector-curvature="0"
           id="path5"
           style="fill:none;stroke:#1c3667;stroke-width:10.51000023px"
           d="m 381.888,616.275 c -5.122,4.733 -10.386,9.599 -16.642,12.679 -10.912,5.373 -29.175,3.169 -39.691,-0.754 -17.397,-6.489 -19.783,-7.742 -31.651,-24.491 -3.44,-4.854 -5.103,-9.015 -5.408,-12.953" /><path
           inkscape:connector-curvature="0"
           id="path7"
           style="fill:none;stroke:#1c3667;stroke-width:10.51000023px"
           d="m 325.555,576.432 c -5.616,2.992 -10.936,6.623 -16.848,8.977 -5.933,2.361 -12.452,4.804 -18.747,5.193 -6.294,0.39 -13.242,0.035 -19.185,-1.028 -5.582,-0.999 -11.505,-3.31 -16.476,-5.352 -4.876,-2.003 -9.572,-4.891 -13.186,-8.729 -4.219,-4.482 -9.935,-11.527 -12.133,-18.161 -2.197,-6.634 -1.492,-15.486 -1.052,-21.643 0.374,-5.234 0.988,-10.852 3.689,-15.304 2.701,-4.452 12.517,-11.409 12.517,-11.409 0,0 -14.668,-0.915 -20.742,-3.196 -6.107,-2.293 -17.367,-11.096 -17.367,-11.096 0,0 -0.524,-0.407 -3.324,-3.058 -3.302,-3.126 -6.856,-9.237 -10.108,-15.7 -3.134,-6.229 -5.651,-13.057 -6.08,-20.018 -0.446,-7.251 1.087,-16.262 3.403,-23.487 2.286,-7.132 6.867,-14.844 10.495,-19.866 2.976,-4.119 11.273,-10.262 11.273,-10.262 0,0 -11.003,-8.174 -13.843,-13.212 -2.931,-5.199 -4.796,-12.434 -6.34,-17.981 -1.393,-5.003 -2.212,-10.159 -2.924,-15.303 -0.76,-5.498 -1.502,-11.764 -1.638,-17.681 -0.141,-6.117 -0.139,-12.944 0.792,-19.019 0.913,-5.958 2.693,-11.786 4.795,-17.435 2.113,-5.679 4.574,-11.835 7.625,-17.161 3.031,-5.292 6.467,-12.457 10.562,-17.708 3.994,-5.123 8.985,-9.494 14.264,-13.28 5.331,-3.824 12.57,-7.648 17.721,-9.661 4.162,-1.627 9.78,-1.883 13.186,-2.418 2.402,-0.377 4.824,-0.949 7.25,-0.793 4.095,0.265 12.218,0.86 17.317,2.378 4.755,1.415 9.297,3.97 13.275,6.729 3.956,2.744 7.059,6.549 10.588,9.823" /><path
           inkscape:connector-curvature="0"
           id="path9"
           style="fill:none;stroke:#1c3667;stroke-width:10.51000023px"
           d="m 257.318,240.641 c 2.846,-5.935 5.721,-11.93 9.556,-17.28 3.197,-4.461 7.163,-8.383 11.369,-11.91 12.22,-10.251 28.353,-16.236 43.416,-20.736 16.311,-4.872 35.344,-5.567 51.549,0.774 3.201,1.252 4.694,2.857 6.81,5.566 1.138,1.458 2.365,3.766 1.87,5.548" /></g><g
         serif:id="Gehirn Innen"
         id="Gehirn-Innen"><path
           inkscape:connector-curvature="0"
           id="path12"
           style="fill:none;stroke:#1c3667;stroke-width:10.51000023px"
           d="m 381.888,350.934 h -46.696 v -52.62 h -33.558" /><path
           inkscape:connector-curvature="0"
           id="path14"
           style="fill:none;stroke:#1c3667;stroke-width:10.51000023px"
           d="m 381.888,450.469 h -68.209 l -0.634,50.915" /><path
           inkscape:connector-curvature="0"
           id="path16"
           style="fill:none;stroke:#1c3667;stroke-width:10.51000023px"
           d="m 213.299,401.395 h 36.614" /><circle
           id="circle18"
           style="fill:none;stroke:#1c3667;stroke-width:10.51000023px"
           r="19.483"
           cy="526.23199"
           cx="312.94901" /><circle
           id="circle20"
           style="fill:none;stroke:#1c3667;stroke-width:10.51000023px"
           r="19.483"
           cy="298.54001"
           cx="273.983" /><circle
           id="circle22"
           style="fill:none;stroke:#1c3667;stroke-width:10.51000023px"
           r="19.483"
           cy="400.60599"
           cx="273.983" /></g></g><g
       transform="translate(9.0125948e-4,-0.01798612)"
       id="Chip"><clipPath
         id="_clip1"><rect
           id="rect27"
           height="489.93301"
           width="248.73"
           y="164.55701"
           x="382.00101" /></clipPath><g
         id="g66"
         clip-path="url(#_clip1)"><path
           inkscape:connector-curvature="0"
           id="path30"
           style="fill:none;stroke:#1c3667;stroke-width:10.51000023px"
           d="m 541.196,292.686 c 0,-27.451 -22.287,-49.739 -49.739,-49.739 h -99.478 c -27.452,0 -49.739,22.288 -49.739,49.739 v 218.607 c 0,27.452 22.287,49.739 49.739,49.739 h 99.478 c 27.452,0 49.739,-22.287 49.739,-49.739 z" /><path
           inkscape:connector-curvature="0"
           id="path32"
           style="fill:none;stroke:#1c3667;stroke-width:10.51000023px"
           d="m 441.718,440.955 v 78.726" /><circle
           id="circle34"
           style="fill:none;stroke:#1c3667;stroke-width:10.51000023px"
           r="19.483"
           cy="421.47198"
           cx="441.71799" /><path
           inkscape:connector-curvature="0"
           id="path36"
           style="fill:none;stroke:#1c3667;stroke-width:10.51000023px"
           d="M 435.187,242.947 V 175.701" /><path
           inkscape:connector-curvature="0"
           id="path38"
           style="fill:none;stroke:#1c3667;stroke-width:10.51000023px"
           d="M 433.597,630.216 V 562.969" /><path
           inkscape:connector-curvature="0"
           id="path40"
           style="fill:none;stroke:#1c3667;stroke-width:10.51000023px"
           d="m 541.196,293.617 h 67.247" /><path
           inkscape:connector-curvature="0"
           id="path42"
           style="fill:none;stroke:#1c3667;stroke-width:10.51000023px"
           d="m 541.196,401.99 h 67.247" /><path
           inkscape:connector-curvature="0"
           id="path44"
           style="fill:none;stroke:#1c3667;stroke-width:10.51000023px"
           d="m 541.196,506.958 h 67.247" /><path
           inkscape:connector-curvature="0"
           id="path46"
           style="fill:none;stroke:#1c3667;stroke-width:10.51000023px"
           d="M 490.656,242.947 V 198.762" /><path
           inkscape:connector-curvature="0"
           id="path48"
           style="fill:none;stroke:#1c3667;stroke-width:10.51000023px"
           d="M 490.656,607.154 V 562.969" /><path
           inkscape:connector-curvature="0"
           id="path50"
           style="fill:none;stroke:#1c3667;stroke-width:10.51000023px"
           d="m 541.196,346.722 h 44.185" /><path
           inkscape:connector-curvature="0"
           id="path52"
           style="fill:none;stroke:#1c3667;stroke-width:10.51000023px"
           d="m 541.196,453.281 h 44.185" /><path
           inkscape:connector-curvature="0"
           id="path54"
           style="fill:none;stroke:#1c3667;stroke-width:10.51000023px"
           d="M 382.001,395.975 435.187,340.31 V 284.298" /><path
           inkscape:connector-curvature="0"
           id="path56"
           style="fill:none;stroke:#1c3667;stroke-width:10.51000023px"
           d="m 342.24,284.298 c 0,0 118.279,-2.112 144.738,0 2.459,0.197 6.65,1.198 9.036,3.506 3.778,3.655 4.98,9.167 4.98,9.167 v 21.868" /><path
           inkscape:connector-curvature="0"
           id="path58"
           style="fill:none;stroke:#1c3667;stroke-width:10.51000023px"
           d="M 500.994,364.961 V 453.23" /><path
           inkscape:connector-curvature="0"
           id="path60"
           style="fill:none;stroke:#1c3667;stroke-width:10.51000023px"
           d="m 500.994,496.251 c -0.284,1.724 0.34,6.844 0,8.986 -0.513,3.232 -3.903,9.043 -8.191,10.974 -4.11,1.85 -9.649,3.354 -14.674,3.47 -25.094,0.579 -98.957,0.193 -135.889,0" /><circle
           id="circle62"
           style="fill:#1c3667;stroke:#1c3667;stroke-width:1.94000006px"
           r="6.7690001"
           cy="475.05701"
           cx="500.99399" /><circle
           id="circle64"
           style="fill:#1c3667;stroke:#1c3667;stroke-width:1.94000006px"
           r="6.7690001"
           cy="342.25699"
           cx="500.99399" /></g></g></g></svg>