<?xml version="1.0" encoding="UTF-8"?>
<svg width="454px" height="115px" viewBox="0 0 454 115" version="1.1" xmlns="http://www.w3.org/2000/svg" xmlns:xlink="http://www.w3.org/1999/xlink">
    <!-- Generator: Sketch 59.1 (86144) - https://sketch.com -->
    <title>Logo-Nexenio-BLACK</title>
    <desc>Created with Sketch.</desc>
    <g id="Logo-Nexenio-BLACK" stroke="none" stroke-width="1" fill="none" fill-rule="evenodd" transform="translate(0.000000, 0.000000)">
        <g transform="translate(13.000000, 13.000000)" fill-rule="nonzero" id="Logo-Nexenio-Grey">
            <g>
                <path d="M405.093369,21.7979724 C411.170548,21.8025678 416.990757,24.2500386 421.2449,28.5899 C425.647692,32.7841464 428.086572,38.634671 427.9666,44.7143 C428.078408,50.8131575 425.63866,56.6817114 421.2361,60.9038 C416.960215,65.2120619 411.141035,67.6345936 405.071084,67.6333173 C399.001132,67.63204 393.182972,65.2070603 388.9089,60.897 C384.48647,56.6878269 382.029225,50.8187354 382.1336,44.7143 C382.026119,38.6145758 384.494051,32.7519482 388.9316,28.5655 C393.192292,24.2320682 399.01619,21.7933899 405.093369,21.7979724 Z M124.593,21.7979 C130.63244,21.6925199 136.441822,24.1124855 140.6204,28.4743 C144.991897,32.6707924 147.413514,38.5013922 147.3013,44.5601 L147.3013,44.5601 L147.3013,67.6329 L138.8413,67.6329 L138.8413,44.5601 C138.8413,36.6762352 132.450165,30.2851 124.5663,30.2851 C116.682435,30.2851 110.2913,36.6762352 110.2913,44.5601 L110.2913,44.5601 L110.2913,67.6329 L101.8303,67.6329 L101.8303,44.5597 C101.718541,38.5021145 104.138193,32.6723772 108.5066,28.4743 C112.704954,24.1056806 118.535072,21.6859842 124.593,21.7979 Z M179.4561,21.7978998 C182.324348,21.7978998 185.16656,22.3420196 187.8316,23.4024 C190.575885,24.4976501 193.089329,26.0999801 195.2405,28.1256 C197.533,30.3326 199.7716,33.8775 201.9016,38.6681 L201.9016,38.6681 L202.2186,39.3788 L168.4857,54.2128 L170.4676,55.8104 C171.633025,56.7558103 172.932965,57.5220765 174.3245,58.0839 C175.976566,58.7300693 177.734169,59.0641548 179.5081,59.0692 L179.5081,59.0692 L180.0257,59.0692 C183.800737,58.9244934 187.372074,57.3195248 189.9867,54.5927 L189.9867,54.5927 L190.64,55.0243 L190.0526,54.5214 C190.749378,53.7097204 191.374139,52.8388967 191.9198,51.9188 L191.9198,51.9188 L192.2537,51.3563 L200.2537,54.4325 L199.8528,55.2011 C198.864228,57.095947 197.627579,58.850621 196.1755,60.4188 C194.110157,62.6546918 191.594012,64.4270333 188.7932,65.6188 C186.149799,66.840749 183.289818,67.5249131 180.3796,67.6315 L180.3796,67.6315 L180.3665,67.6325113 L179.6628,67.6325113 C176.798177,67.6353245 173.957807,67.1075569 171.2854,66.0759 C168.521113,64.9890188 165.994305,63.3754614 163.8454,61.3249 C161.61321,59.259412 159.843757,56.7446067 158.6535,53.946 C157.428305,51.3228752 156.745229,48.4794203 156.645065,45.586 L156.645065,45.586 L156.645065,44.817 C156.635359,41.950707 157.16234,39.1079167 158.1989,36.4356 C159.276332,33.6884896 160.866266,31.1712895 162.884,29.0181 C164.976612,26.7830826 167.511681,25.0082821 170.3278,23.8067 C173.043961,22.585278 175.971503,21.9030452 178.9478,21.7978998 L178.9478,21.7978998 Z M274.864,21.7978989 C277.734665,21.7970186 280.579363,22.3415049 283.2468,23.4024 C285.989669,24.4984454 288.502061,26.1003272 290.6531,28.1246 C292.9461,30.3336 295.1843,33.8781 297.3152,38.6681 L297.3152,38.6681 L297.6303,39.3794 L263.8979,54.2134 L265.8793,55.811 C267.044865,56.7565255 268.34502,57.5227996 269.7368,58.0845 C271.387872,58.7304947 273.144459,59.0645806 274.9174,59.0698 L274.9174,59.0698 L275.4379,59.0698 C279.213113,58.926572 282.784584,57.3205035 285.3969,54.5913 L285.3969,54.5913 L286.0444,55.0313 L285.4575,54.5255 C286.157962,53.7133085 286.785678,52.8411187 287.3334,51.919 L287.3334,51.919 L287.6665,51.3556 L295.6626,54.4317 L295.2631,55.2003 C294.27684,57.0944813 293.042653,58.8488437 291.5931,60.4171 C289.525421,62.6543086 287.006362,64.4270844 284.2025,65.6182 C281.559181,66.841034 278.698924,67.5255635 275.7884,67.6319 L275.7884,67.6319 L275.7748,67.6329117 L275.0755,67.6329117 C272.211034,67.6357804 269.370818,67.1080099 266.6986,66.0763 C263.934106,64.9893684 261.407246,63.3754387 259.2586,61.3243 C257.026072,59.2592338 255.256414,56.7445835 254.0662,53.946 C252.840157,51.3231478 252.156877,48.4795515 252.057257,45.586 L252.057257,45.586 L252.057257,44.817 C252.047268,41.9506809 252.57426,39.107837 253.6111,36.4356 C254.687566,33.6879084 256.27776,31.170511 258.2966,29.0181 C260.389272,26.7833322 262.924155,25.0085665 265.74,23.8067 C268.456819,22.5850377 271.385095,21.9028001 274.3621,21.7978989 L274.3621,21.7978989 Z M329.3689,21.7979 C335.408877,21.692532 341.218923,24.1119828 345.3989,28.4732 C349.767711,32.6719128 352.188517,38.5017436 352.0789,44.5601 L352.0789,44.5601 L352.0789,67.6329 L343.613,67.6329 L343.613,44.5601 C343.613,36.6765666 337.222133,30.2857 329.3386,30.2857 C321.455067,30.2857 315.0642,36.6765666 315.0642,44.5601 L315.0642,44.5601 L315.0642,67.6329 L306.6062,67.6329 L306.6062,44.5597 C306.492933,38.5017287 308.913033,32.6713504 313.283,28.4743 C317.481312,24.1059223 323.311171,21.6862586 329.3689,21.7979 Z M371.3377,21.7979 L371.3377,67.6329 L362.9255,67.6329 L362.9255,21.7979 L371.3377,21.7979 Z M214.76,21.797 L226.829,37.704 L238.838,21.797 L249.426,21.797 L232.119,44.658 L232.129,44.672 L224.443,54.87 L214.76,67.632 L204.264,67.632 L221.529,44.659 L204.273,21.797 L214.76,21.797 Z M415.21275,34.5439502 C409.603028,28.939116 400.511834,28.9430783 394.907,34.5528 C390.835052,38.6706906 389.627211,44.8277431 391.84161,50.1788385 C394.056009,55.529934 399.261432,59.033039 405.0525,59.0694 C408.87517,59.1051729 412.547305,57.581409 415.2216,54.8497 C420.826434,49.2399781 420.822472,40.1487843 415.21275,34.5439502 Z M179.0943,29.5865 L179.1243,30.3595 L179.0754,30.3614 C175.294726,30.525642 171.719271,32.1266116 169.0789,34.8375 L169.0789,34.8375 L169.0007,34.9234 C167.869972,36.2806536 166.934953,37.7896168 166.2229,39.4063 C165.641183,40.8402585 165.298895,42.3600129 165.2097,43.9049 L165.2097,43.9049 L165.0803,46.4122 L190.5913,35.2148 L188.5937,33.6148 C187.454484,32.7029428 186.197782,31.9484774 184.8574,31.3717 L184.8574,31.3717 L184.7817,31.3409 C183.044554,30.6955705 181.206638,30.3637556 179.3535,30.3609 L179.3535,30.3609 L179.1416,30.3609 L179.0943,29.5865 Z M274.5057,29.5865 L274.5357,30.3595 L274.4878,30.3614 C270.706946,30.5254964 267.131283,32.1264789 264.4908,34.8375 L264.4908,34.8375 L264.4136,34.9234 C263.282543,36.2805127 262.347341,37.7894997 261.6353,39.4063 C261.05377,40.8403415 260.711326,42.360037 260.6216,43.9049 L260.6216,43.9049 L260.4916,46.4122 L285.9986,35.2159 L284.0086,33.6168 C282.869236,32.7040476 281.612138,31.9488941 280.2712,31.3717 L280.2712,31.3717 L280.4636,30.6153 L280.1951,31.3409 C278.457931,30.6950212 276.619752,30.3631894 274.7664,30.3609 L274.7664,30.3609 L274.5545,30.3609 L274.5057,29.5865 Z" id="Combined-Shape" fill="#000000"></path>
                <path d="M367.1541,2.0172 C363.986289,2.02018073 361.420036,4.58938738 361.4207,7.7572 C361.405611,9.29266492 362.020412,10.7672349 363.1218,11.8372 C364.176187,12.9273357 365.637871,13.5276977 367.1541,13.4934 C368.644573,13.524056 370.077709,12.9191889 371.0955,11.8299 C372.193437,10.7611838 372.805425,9.28920464 372.7888,7.7571 C372.820016,6.23310673 372.21448,4.76509245 371.1179,3.7063 C370.102148,2.59784492 368.657161,1.98209048 367.1541,2.0172 Z" id="Path" fill="#FF6B00"></path>
                <polygon id="Path" fill="#FF6B00" points="230.219 56.213 235.521 49.176 249.433 67.632 238.838 67.632"></polygon>
                <path d="M47.2184,58.9278 C49.625839,59.8855307 51.8953621,61.1588714 53.9674,62.7144 C56.6612,64.6005 59.112,66.9551 61.6401,69.0529 C63.3718,70.4898 71.1271,77.8615 74.2645,79.7877 C77.1977109,81.6001438 80.879014,81.6950299 83.9017,80.0361 C85.8832102,78.9623969 87.3219494,77.1050099 87.8662,74.918 C88.2520519,76.4634608 88.2085541,78.0849487 87.7404,79.6075 C86.8412097,82.5902836 84.7808997,85.0864956 82.0227,86.5349 C77.9208,88.836 73.1652,88.4949 69.0196,86.6155 C66.2759203,85.34918 63.6962811,83.7541569 61.3374,81.8655 C60.1086,80.8831 58.6525,79.7134 57.4389,78.7124 C54.2819,76.1084 51.0673,73.4619 47.9552,70.8043 C47.9508,70.7995 44.8116,68.2189 44.8116,68.2189 C41.044,65.3883 35.1227,61.6236 30.8976,63.7642 C36.1735,56.9842 42.5182,57.2618 47.2184,58.9278 Z M24.61,30.2947 C31.1569,37.4678 31.1656,42.4244 29.2729,47.4835 C28.1614869,50.0891376 26.7498782,52.5562142 25.0667,54.8347 C21.8752,59.5577 17.8469,63.6304 14.0216,67.8238 C11.5522,70.5313 5.9841,75.5275 7.0916,80.9127 C8.221,86.4026 13.6513,87.7467 13.6513,87.7467 C11.4999865,88.0432652 9.30944419,87.6741617 7.3741,86.689 C2.84921547,84.4860011 -0.0154128194,79.8874412 0.00202015554,74.8548 C0.0621,72.0748 0.3482,69.5819 4.1996,64.5548 C9.1583,58.0818 15.7753,51.3077 19.9039,45.5118 C23.63,40.2806 26.7506,34.5193 24.61,30.2947 Z M32.8731,64.463 C35.1501668,64.4984267 37.3801656,65.1167959 39.3503,66.2591 C41.0604375,67.1450323 42.6771394,68.2007111 44.176,69.4102 C42.7226297,69.689916 41.3174623,70.1787622 40.0043,70.8615 C37.1501,72.3883 34.899,74.1496 28.2943,80.2101 C25.2323,83.0201 20.5143,86.4786 16.7302,86.8054 C12.5938708,87.0432174 8.97078888,84.0587188 8.4121,79.9534 C8.17503403,78.4235313 8.53646219,76.8611388 9.4213,75.5908 C9.54107853,76.5643911 10.1082829,77.4263352 10.9550447,77.9215332 C11.8018064,78.4167312 12.8311377,78.4884634 13.7384,78.1155 C17.6374,76.6782 24.1944,69.5403 26.861,67.3004 C29.0382,65.4715 30.6339,64.5584 32.8731,64.463 Z M69.1415,44.0596 C69.8469504,46.3001568 70.8811235,48.4235699 72.2102,50.3604 C74.7960268,54.1905235 77.6073916,57.8634432 80.6294,61.3597 C83.2177,64.4517 86.6201,68.1445 86.7867,72.4643 C86.9452,76.5743 83.6384,79.3726 79.6806,79.7436 C78.9555264,79.7809201 78.228599,79.7305556 77.5156,79.5936 C77.0879627,79.5295392 76.6673976,79.4249002 76.2596,79.2811 C76.0038,79.1885 74.9296,78.6494 74.9296,78.6494 C76.2760109,78.7896104 77.525301,77.9323939 77.8789,76.6257 C78.1277,75.5212 77.3908,74.3078 76.3096,72.9164 C74.0004,69.9443 67.2156,61.8427 66.4749,60.7127 C65.1027,58.6196 64.1955,56.6681 64.5022,53.9211 C64.9775,49.6656 69.1415,44.0596 69.1415,44.0596 Z M74.6765,0.3979 C76.827781,0.101342708 79.0182891,0.470446342 80.9536,1.4556 C85.4784573,3.65859195 88.3431076,8.25708597 88.3257789,13.2897 C88.2656,16.0697 87.9795,18.5625 84.1281,23.5897 C79.1694,30.0626 72.5524,36.8368 68.4239,42.6326 C64.6977,47.8639 61.5771,53.6252 63.7177,57.8498 C57.1708,50.6767 57.1621,45.72 59.0548,40.661 C60.166191,38.0553514 61.5778011,35.5882723 63.261,33.3098 C66.4525,28.5868 70.4808,24.5141 74.3061,20.3207 C76.7759,17.6131 82.344,12.617 81.2366,7.2318 C80.1075,1.7418 74.6765,0.3979 74.6765,0.3979 Z M10.8129,8.551 C11.240567,8.61502621 11.6611654,8.71963169 12.069,8.8634 C12.3248,8.9561 13.399,9.4952 13.399,9.4952 C12.0525891,9.35498965 10.803299,10.2122061 10.4497,11.5189 C10.2009,12.6233 10.9378,13.8367 12.0191,15.2282 C14.3281,18.2001 21.1129,26.3017 21.8536,27.4317 C23.2258,29.5249 24.133,31.4763 23.8263,34.2234 C23.351,38.4789 19.187,44.0849 19.187,44.0849 C18.4815519,41.8444046 17.447378,39.7210571 16.1183,37.7843 C13.5325302,33.9541355 10.7211628,30.2812125 7.6991,26.785 C5.1108,23.693 1.7084,20.0001 1.5418,15.6803 C1.3833,11.5703 4.6902,8.772 8.6479,8.401 C9.37297356,8.36367991 10.099901,8.41404439 10.8129,8.551 Z M19.3089,1.5295 C22.0525813,2.79587482 24.6322472,4.39089363 26.9912,6.2795 C28.2199,7.262 29.676,8.4317 30.8896,9.4327 C34.0466,12.0366 37.2612,14.6827 40.3733,17.3407 C40.3777,17.3455 43.5169,19.9261 43.5169,19.9261 C47.2845,22.7567 53.2058,26.5215 57.4309,24.3809 C52.155,31.1609 45.8103,30.8833 41.1101,29.2173 C38.7028139,28.2594047 36.4334602,26.9859302 34.3616,25.4303 C31.6678,23.5442 29.217,21.1895 26.6889,19.0918 C24.9572,17.6548 17.2019,10.2832 14.0645,8.357 C11.1312891,6.54455617 7.44998597,6.44967014 4.4273,8.1086 C2.44582251,9.18234163 1.00709614,11.0397121 0.4628,13.2267 C0.0770090964,11.6812325 0.120506503,10.0597613 0.5886,8.5372 C1.48763189,5.55440988 3.54774978,3.05810422 6.3058,1.6095 C10.4077,-0.6915 15.1633,-0.3505 19.3089,1.5295 Z M79.9164,8.1911 C80.153466,9.72096873 79.7920378,11.2833612 78.9072,12.5537 C78.7874402,11.580117 78.2202619,10.7181701 77.3735227,10.2229542 C76.5267835,9.72773823 75.4974664,9.6559739 74.5902,10.0289 C70.6916,11.4662 64.1345,18.6043 61.4679,20.8443 C59.2907,22.6732 57.695,23.5863 55.4559,23.6817 C53.1787687,23.6462257 50.948725,23.0277503 48.9786,21.8853 C47.2683189,20.9994384 45.6514806,19.9437915 44.1525,18.7343 C45.6058728,18.4545935 47.0110416,17.9657469 48.3242,17.283 C51.1784,15.7562 53.4295,13.9948 60.0342,7.9344 C63.0962,5.1249 67.8142,1.6659 71.5984,1.3391 C75.7347079,1.10128741 79.3577589,4.08579637 79.9164,8.1911 Z" id="Combined-Shape" fill="#FF6B00"></path>
            </g>
        </g>
    </g>
</svg>