<svg xmlns="http://www.w3.org/2000/svg" width="962mm" height="200mm" viewBox="0 0 2726.9291 566.9291"><path d="M658.8747,350.2249a26.2137,26.2137,0,0,1-1.86,10.1992,20.3638,20.3638,0,0,1-5.22,7.44,21.939,21.939,0,0,1-8.04,4.5,33.6516,33.6516,0,0,1-10.32,1.5h-33.24v-85.44h32.16a32.1119,32.1119,0,0,1,10.2,1.5606,22.5573,22.5573,0,0,1,7.98,4.5,20.645,20.645,0,0,1,5.16,7.14,23.5,23.5,0,0,1,1.86,9.6006,19.5426,19.5426,0,0,1-12.6,18.72,21.8909,21.8909,0,0,1,10.02,7.44A20.7,20.7,0,0,1,658.8747,350.2249Zm-10.44-38.88a15.1934,15.1934,0,0,0-1.32-6.6005,13,13,0,0,0-3.54-4.56,14.9955,14.9955,0,0,0-5.28-2.7,23.497,23.497,0,0,0-6.66-.9h-22.32v29.6406h22.32a23.5329,23.5329,0,0,0,6.66-.9,14.9955,14.9955,0,0,0,5.28-2.7,12.8636,12.8636,0,0,0,3.54-4.62A15.5749,15.5749,0,0,0,648.4347,311.345Zm1.32,38.64q0-7.2-4.62-11.4-4.6209-4.1982-12.54-4.2h-23.28v31.32h23.28q7.92,0,12.54-4.26Q649.7532,357.1864,649.7546,349.9847Z" style="fill:#1d1e1b"/><path d="M679.2731,373.8646v-85.44h9.12v85.44Z" style="fill:#1d1e1b"/><path d="M768.5519,331.1448q0,6.8394-.12,11.94a55.0748,55.0748,0,0,1-.9,9.12,28.15,28.15,0,0,1-2.4,7.26,24.2018,24.2018,0,0,1-4.62,6.24,30.01,30.01,0,0,1-9.84,6.6006,31.1191,31.1191,0,0,1-12,2.2793,29.6764,29.6764,0,0,1-21.84-8.88,24.1556,24.1556,0,0,1-4.62-6.24,28.0736,28.0736,0,0,1-2.4-7.26,54.6479,54.6479,0,0,1-.9-9.12q-.1217-5.0991-.12-11.94,0-6.8408.12-11.94a54.6906,54.6906,0,0,1,.9-9.12,28.1245,28.1245,0,0,1,2.4-7.26,24.1893,24.1893,0,0,1,4.62-6.24,31.2972,31.2972,0,0,1,43.68,0,24.2356,24.2356,0,0,1,4.62,6.24,28.2007,28.2007,0,0,1,2.4,7.26,55.1181,55.1181,0,0,1,.9,9.12Q768.55,324.3065,768.5519,331.1448Zm-9.12,0q0-6.7191-.18-11.34a56.08,56.08,0,0,0-.78-7.86,20.3862,20.3862,0,0,0-1.8-5.58,17.5439,17.5439,0,0,0-3.24-4.38,19.43,19.43,0,0,0-6.66-4.5,21.0591,21.0591,0,0,0-16.2,0,19.3973,19.3973,0,0,0-6.66,4.5,17.4536,17.4536,0,0,0-3.24,4.38,20.278,20.278,0,0,0-1.8,5.58,55.7952,55.7952,0,0,0-.78,7.86q-.18,4.62-.18,11.34,0,6.7223.18,11.34a55.7763,55.7763,0,0,0,.78,7.86,20.2814,20.2814,0,0,0,1.8,5.5791,17.4064,17.4064,0,0,0,3.24,4.3809,19.3973,19.3973,0,0,0,6.66,4.5,21.0711,21.0711,0,0,0,16.2,0,19.43,19.43,0,0,0,6.66-4.5,17.4961,17.4961,0,0,0,3.24-4.3809,20.39,20.39,0,0,0,1.8-5.5791,56.0613,56.0613,0,0,0,.78-7.86Q759.4323,337.866,759.4318,331.1448Z" style="fill:#1d1e1b"/><path d="M853.0319,373.8646v-64.92l-23.4,51.48h-7.8l-23.76-51.48v64.92h-9.12v-85.44h9.12l27.84,60.6006,27.12-60.6006h9.12v85.44Z" style="fill:#1d1e1b"/><path d="M885.7917,373.8646v-85.44h53.04v8.16h-43.92v30.12h37.44v8.16h-37.44v30.84h43.92v8.16Z" style="fill:#1d1e1b"/><path d="M981.7912,296.5843v77.28h-9.12v-77.28h-24.72v-8.16h58.56v8.16Z" style="fill:#1d1e1b"/><path d="M1070.4709,373.8646l-19.44-37.92h-20.52v37.92h-9.12v-85.44h32.76a30.99,30.99,0,0,1,10.2,1.62,22.9045,22.9045,0,0,1,8.04,4.68,20.9648,20.9648,0,0,1,5.22,7.501,25.5671,25.5671,0,0,1,1.86,9.96q0,9.3588-5.16,15.3a23.4,23.4,0,0,1-13.44,7.62l20.28,38.76Zm-.12-61.56q0-7.92-4.74-11.82-4.7417-3.8979-12.3-3.9h-22.8v31.32h22.8q7.56,0,12.3-3.84T1070.3508,312.305Z" style="fill:#1d1e1b"/><path d="M1099.03,373.8646v-85.44h9.12v85.44Z" style="fill:#1d1e1b"/><path d="M1188.069,349.1448a35.4482,35.4482,0,0,1-3.66,10.7393,27.0744,27.0744,0,0,1-6.48,7.9805,28.5961,28.5961,0,0,1-8.82,4.98,31.8685,31.8685,0,0,1-10.68,1.7393,31.2438,31.2438,0,0,1-11.94-2.2793,29.8306,29.8306,0,0,1-9.9-6.6006,24.1579,24.1579,0,0,1-4.62-6.24,28.0774,28.0774,0,0,1-2.4-7.26,54.6479,54.6479,0,0,1-.9-9.12q-.1215-5.0991-.12-11.94t.12-11.94a54.6906,54.6906,0,0,1,.9-9.12,28.1283,28.1283,0,0,1,2.4-7.26,24.1916,24.1916,0,0,1,4.62-6.24,29.843,29.843,0,0,1,9.9-6.6,31.2634,31.2634,0,0,1,11.94-2.28,31.846,31.846,0,0,1,10.68,1.74,28.6161,28.6161,0,0,1,8.82,4.98,27.1116,27.1116,0,0,1,6.48,7.9805,35.4811,35.4811,0,0,1,3.66,10.74h-9.36a22.53,22.53,0,0,0-6.96-12.6,19.3414,19.3414,0,0,0-13.32-4.68,21.6442,21.6442,0,0,0-8.1,1.56,18.7269,18.7269,0,0,0-6.66,4.44,17.4507,17.4507,0,0,0-3.24,4.38,20.2918,20.2918,0,0,0-1.8,5.64,57.4125,57.4125,0,0,0-.78,7.9209q-.18,4.62-.18,11.34,0,6.7223.18,11.34a57.3317,57.3317,0,0,0,.78,7.92,20.261,20.261,0,0,0,1.8,5.64,17.3986,17.3986,0,0,0,3.24,4.38,18.6888,18.6888,0,0,0,6.66,4.44,21.5852,21.5852,0,0,0,8.1,1.56,19.793,19.793,0,0,0,13.44-4.68,22.21,22.21,0,0,0,7.08-12.6Z" style="fill:#1d1e1b"/><path d="M1258.6286,350.345a23.7179,23.7179,0,0,1-2.1,10.14,21.047,21.047,0,0,1-6,7.62,27.9516,27.9516,0,0,1-9.36,4.8,40.9152,40.9152,0,0,1-12.06,1.68,45.6817,45.6817,0,0,1-16.44-2.64,37.09,37.09,0,0,1-12.84-8.64l6.24-6.24a30.7613,30.7613,0,0,0,10.68,7.3193,35.5411,35.5411,0,0,0,12.6,2.04q9.36,0,14.76-4.14t5.4-11.7a17.5826,17.5826,0,0,0-1.02-6.12,11.0983,11.0983,0,0,0-3.06-4.56,12.9871,12.9871,0,0,0-4.26-2.58,41.8634,41.8634,0,0,0-6.9-1.5l-9.96-1.56q-10.2012-1.68-15.72-6.4805-6.48-5.76-6.48-15.96a24.9594,24.9594,0,0,1,1.92-9.9,20.9711,20.9711,0,0,1,5.46-7.62,25.28,25.28,0,0,1,8.58-4.8594,34.8387,34.8387,0,0,1,11.4-1.74,40.7291,40.7291,0,0,1,14.04,2.1641,36.92,36.92,0,0,1,11.4,6.956l-5.88,5.88a28.8862,28.8862,0,0,0-8.52-5.46,30.3675,30.3675,0,0,0-11.4-1.86q-8.64,0-13.32,4.3545t-4.68,11.6113q0,6.5318,3.84,9.917a18.6517,18.6517,0,0,0,5.1,2.9024,33.6022,33.6022,0,0,0,6.42,1.8154l9.36,1.4394q2.9977.482,5.34,1.02a28.5026,28.5026,0,0,1,4.14,1.26,23.1566,23.1566,0,0,1,3.3,1.62,17.9977,17.9977,0,0,1,2.82,2.1Q1258.6286,339.5443,1258.6286,350.345Z" style="fill:#1d1e1b"/><path d="M1355.2277,373.8646l-6.8408-19.32h-37.32l-6.84,19.32h-9.72l31.44-85.44h7.68l31.3194,85.44Zm-25.3208-72.36-16.08,45.36h31.92Z" style="fill:#1d1e1b"/><path d="M1432.1471,373.8646l-45.3593-68.52v68.52h-9.12v-85.44h8.64l45.36,68.28v-68.28h9.12v85.44Z" style="fill:#1d1e1b"/><path d="M1523.7048,330.1849q0,4.44-.06,9.3594a69.9828,69.9828,0,0,1-.78,9.66,40.4238,40.4238,0,0,1-2.46,9.0606,22.8514,22.8514,0,0,1-5.1,7.68,25.5523,25.5523,0,0,1-9.36,5.88,35.0542,35.0542,0,0,1-12.24,2.04h-29.2793v-85.44h29.2793a35.1,35.1,0,0,1,12.24,2.04,25.6047,25.6047,0,0,1,9.36,5.88,23.8138,23.8138,0,0,1,5.1,7.3808,35.64,35.64,0,0,1,2.46,8.3994,60.3492,60.3492,0,0,1,.78,9Q1523.7038,325.746,1523.7048,330.1849Zm-9.12,0q0-3.9609-.0595-7.86a63.1536,63.1536,0,0,0-.54-7.44,29.6508,29.6508,0,0,0-1.68-6.6592,16.23,16.23,0,0,0-3.36-5.4,18.4781,18.4781,0,0,0-7.56-4.86,29.5,29.5,0,0,0-9.24-1.38h-18.6v69.12h18.6a29.4452,29.4452,0,0,0,9.24-1.38,18.4373,18.4373,0,0,0,7.56-4.86,15.72,15.72,0,0,0,3.36-5.6992,35.0294,35.0294,0,0,0,1.68-7.32,75.7121,75.7121,0,0,0,.54-8.1Q1514.5836,334.1453,1514.5846,330.1849Z" style="fill:#1d1e1b"/><path d="M1572.905,373.8646v-85.44h9.12v85.44Z" style="fill:#1d1e1b"/><path d="M1660.1432,373.8646l-45.3593-68.52v68.52h-9.12v-85.44h8.64l45.36,68.28v-68.28h9.12v85.44Z" style="fill:#1d1e1b"/><path d="M1717.5016,296.5843v77.28h-9.12v-77.28h-24.7207v-8.16h58.5606v8.16Z" style="fill:#1d1e1b"/><path d="M1757.1012,373.8646v-85.44h53.04v8.16h-43.92v30.12h37.4394v8.16h-37.4394v30.84h43.92v8.16Z" style="fill:#1d1e1b"/><path d="M1877.1,373.8646l-19.4405-37.92H1837.14v37.92h-9.12v-85.44h32.76a30.9954,30.9954,0,0,1,10.2,1.62,22.909,22.909,0,0,1,8.04,4.68,20.97,20.97,0,0,1,5.22,7.501,25.5671,25.5671,0,0,1,1.86,9.96q0,9.3588-5.16,15.3a23.4,23.4,0,0,1-13.44,7.62l20.28,38.76Zm-.12-61.56q0-7.92-4.74-11.82-4.7416-3.8979-12.3-3.9h-22.8v31.32h22.8q7.56,0,12.3-3.84T1876.98,312.305Z" style="fill:#1d1e1b"/><path d="M1960.1393,373.8646l-45.3593-68.52v68.52h-9.12v-85.44h8.64l45.36,68.28v-68.28h9.12v85.44Z" style="fill:#1d1e1b"/><path d="M1992.4186,373.8646v-85.44h53.04v8.16h-43.92v30.12h37.4395v8.16h-37.4395v30.84h43.92v8.16Z" style="fill:#1d1e1b"/><path d="M2088.4177,296.5843v77.28h-9.12v-77.28h-24.7207v-8.16h58.5606v8.16Z" style="fill:#1d1e1b"/><path d="M2124.777,345.5443v-8.04h32.88v8.04Z" style="fill:#1d1e1b"/><path d="M2229.5348,350.345a23.7164,23.7164,0,0,1-2.1,10.14,21.0406,21.0406,0,0,1-6,7.62,27.9473,27.9473,0,0,1-9.36,4.8,40.9173,40.9173,0,0,1-12.06,1.68,45.6836,45.6836,0,0,1-16.44-2.64,37.09,37.09,0,0,1-12.84-8.64l6.24-6.24a30.7625,30.7625,0,0,0,10.68,7.3193,35.5382,35.5382,0,0,0,12.6,2.04q9.36,0,14.7607-4.14t5.3994-11.7a17.585,17.585,0,0,0-1.0195-6.12,11.1,11.1,0,0,0-3.0606-4.56,12.9848,12.9848,0,0,0-4.26-2.58,41.894,41.894,0,0,0-6.8994-1.5l-9.961-1.56q-10.2-1.68-15.72-6.4805-6.479-5.76-6.4795-15.96a24.9522,24.9522,0,0,1,1.92-9.9,20.9773,20.9773,0,0,1,5.46-7.62,25.2767,25.2767,0,0,1,8.58-4.8594,34.8278,34.8278,0,0,1,11.3994-1.74,40.7229,40.7229,0,0,1,14.04,2.1641,36.914,36.914,0,0,1,11.4,6.956l-5.88,5.88a28.8794,28.8794,0,0,0-8.5205-5.46,30.3616,30.3616,0,0,0-11.3994-1.86q-8.641,0-13.32,4.3545t-4.68,11.6113q0,6.5318,3.84,9.917a18.6412,18.6412,0,0,0,5.1,2.9024,33.6055,33.6055,0,0,0,6.42,1.8154l9.36,1.4394q2.9986.482,5.34,1.02a28.44,28.44,0,0,1,4.14,1.26,23.217,23.217,0,0,1,3.3008,1.62,17.9852,17.9852,0,0,1,2.8193,2.1Q2229.5358,339.5443,2229.5348,350.345Z" style="fill:#1d1e1b"/><path d="M2247.5339,373.8646v-85.44h53.04v8.16h-43.92v30.12h37.4394v8.16H2256.654v30.84h43.92v8.16Z" style="fill:#1d1e1b"/><path d="M2374.7331,349.1448a35.4447,35.4447,0,0,1-3.6592,10.7393,27.0821,27.0821,0,0,1-6.48,7.9805,28.5986,28.5986,0,0,1-8.82,4.98,31.8647,31.8647,0,0,1-10.68,1.7393,31.2492,31.2492,0,0,1-11.94-2.2793,29.8336,29.8336,0,0,1-9.8994-6.6006,24.1556,24.1556,0,0,1-4.62-6.24,28.0929,28.0929,0,0,1-2.4-7.26,54.7042,54.7042,0,0,1-.8994-9.12q-.1217-5.0991-.12-11.94,0-6.8408.12-11.94a54.747,54.747,0,0,1,.8994-9.12,28.1439,28.1439,0,0,1,2.4-7.26,24.1893,24.1893,0,0,1,4.62-6.24,29.846,29.846,0,0,1,9.8994-6.6,31.2687,31.2687,0,0,1,11.94-2.28,31.8422,31.8422,0,0,1,10.68,1.74,28.6186,28.6186,0,0,1,8.82,4.98,27.1193,27.1193,0,0,1,6.48,7.9805,35.4776,35.4776,0,0,1,3.6592,10.74h-9.3594a22.5291,22.5291,0,0,0-6.96-12.6,19.3443,19.3443,0,0,0-13.32-4.68,21.6443,21.6443,0,0,0-8.1,1.56,18.7232,18.7232,0,0,0-6.66,4.44,17.4512,17.4512,0,0,0-3.24,4.38,20.2951,20.2951,0,0,0-1.8,5.64,57.43,57.43,0,0,0-.78,7.9209q-.18,4.62-.18,11.34,0,6.7223.18,11.34a57.3488,57.3488,0,0,0,.78,7.92,20.2643,20.2643,0,0,0,1.8,5.64,17.399,17.399,0,0,0,3.24,4.38,18.6851,18.6851,0,0,0,6.66,4.44,21.5853,21.5853,0,0,0,8.1,1.56,19.7964,19.7964,0,0,0,13.44-4.68,22.2114,22.2114,0,0,0,7.0791-12.6Z" style="fill:#1d1e1b"/><path d="M2452.2526,345.6644a30.1833,30.1833,0,0,1-2.22,11.7,26.7148,26.7148,0,0,1-6.24,9.18,28.194,28.194,0,0,1-9.4795,5.94,35,35,0,0,1-23.88,0,27.5208,27.5208,0,0,1-9.4209-5.94,27.1014,27.1014,0,0,1-6.18-9.18,30.1466,30.1466,0,0,1-2.22-11.7v-57.24h9.12v56.52a25.8416,25.8416,0,0,0,1.4394,8.88,18.4859,18.4859,0,0,0,4.1407,6.72,18.9929,18.9929,0,0,0,6.54,4.32,24.0534,24.0534,0,0,0,17.04,0,18.5343,18.5343,0,0,0,10.7393-11.04,24.9042,24.9042,0,0,0,1.5-8.88v-56.52h9.12Z" style="fill:#1d1e1b"/><path d="M2523.7721,373.8646l-19.44-37.92h-20.52v37.92h-9.12v-85.44h32.76a30.9949,30.9949,0,0,1,10.2,1.62,22.91,22.91,0,0,1,8.04,4.68,20.9711,20.9711,0,0,1,5.22,7.501,25.5671,25.5671,0,0,1,1.86,9.96q0,9.3588-5.16,15.3a23.4,23.4,0,0,1-13.44,7.62l20.28,38.76Zm-.12-61.56q0-7.92-4.74-11.82-4.7416-3.8979-12.3-3.9h-22.8v31.32h22.8q7.56,0,12.3-3.84T2523.652,312.305Z" style="fill:#1d1e1b"/><path d="M2552.3317,373.8646v-85.44h9.12v85.44Z" style="fill:#1d1e1b"/><path d="M2610.1706,296.5843v77.28h-9.12v-77.28H2576.33v-8.16H2634.89v8.16Z" style="fill:#1d1e1b"/><path d="M2672.9284,338.5843v35.28h-9.1191v-35.28l-25.44-50.16h9.84l20.16,40.9209,19.92-40.9209h9.84Z" style="fill:#1d1e1b"/><path d="M649.2746,521.8646l-19.44-37.92h-20.52v37.92h-9.12v-85.44h32.76a30.99,30.99,0,0,1,10.2,1.62,22.9065,22.9065,0,0,1,8.04,4.6806,20.9609,20.9609,0,0,1,5.22,7.5,25.5671,25.5671,0,0,1,1.86,9.96q0,9.3588-5.16,15.3a23.4,23.4,0,0,1-13.44,7.62l20.28,38.76Zm-.12-61.56q0-7.92-4.74-11.82-4.7417-3.8979-12.3-3.9h-22.8v31.32h22.8q7.56,0,12.3-3.84T649.1545,460.305Z" style="fill:#1d1e1b"/><path d="M677.8342,521.8646v-85.44h53.04v8.16h-43.92v30.12h37.44v8.16h-37.44v30.84h43.92v8.16Z" style="fill:#1d1e1b"/><path d="M800.2336,498.345a23.7179,23.7179,0,0,1-2.1,10.14,21.047,21.047,0,0,1-6,7.62,27.9516,27.9516,0,0,1-9.36,4.8,40.9152,40.9152,0,0,1-12.06,1.68,45.6817,45.6817,0,0,1-16.44-2.64,37.09,37.09,0,0,1-12.84-8.64l6.24-6.24a30.76,30.76,0,0,0,10.68,7.3193,35.5411,35.5411,0,0,0,12.6,2.04q9.36,0,14.76-4.14t5.4-11.7a17.585,17.585,0,0,0-1.02-6.12,11.0993,11.0993,0,0,0-3.06-4.56,12.9881,12.9881,0,0,0-4.26-2.58,41.8634,41.8634,0,0,0-6.9-1.5l-9.96-1.56q-10.201-1.68-15.72-6.4805-6.48-5.76-6.48-15.96a24.9594,24.9594,0,0,1,1.92-9.9,20.959,20.959,0,0,1,5.46-7.6191,25.2643,25.2643,0,0,1,8.58-4.86,34.8387,34.8387,0,0,1,11.4-1.74,40.7285,40.7285,0,0,1,14.04,2.1641,36.9177,36.9177,0,0,1,11.4,6.956l-5.88,5.88a28.8853,28.8853,0,0,0-8.52-5.46,30.3669,30.3669,0,0,0-11.4-1.86q-8.64,0-13.32,4.3545t-4.68,11.6113q0,6.5318,3.84,9.917a18.65,18.65,0,0,0,5.1,2.9024,33.6,33.6,0,0,0,6.42,1.8154l9.36,1.4394q2.9977.482,5.34,1.02a28.4972,28.4972,0,0,1,4.14,1.26,23.1579,23.1579,0,0,1,3.3,1.62,17.9977,17.9977,0,0,1,2.82,2.1Q800.2336,487.5443,800.2336,498.345Z" style="fill:#1d1e1b"/><path d="M818.2321,521.8646v-85.44h53.04v8.16h-43.92v30.12h37.44v8.16h-37.44v30.84h43.92v8.16Z" style="fill:#1d1e1b"/><path d="M938.9518,521.8646l-6.84-19.32h-37.32l-6.84,19.32h-9.72l31.44-85.44h7.68l31.32,85.44Zm-25.32-72.36-16.08,45.36h31.9205Z" style="fill:#1d1e1b"/><path d="M1010.4714,521.8646l-19.44-37.92h-20.52v37.92h-9.12v-85.44h32.76a30.9894,30.9894,0,0,1,10.2,1.62,22.9061,22.9061,0,0,1,8.04,4.6806,20.9609,20.9609,0,0,1,5.22,7.5,25.5671,25.5671,0,0,1,1.86,9.96q0,9.3588-5.16,15.3a23.4,23.4,0,0,1-13.44,7.62l20.28,38.76Zm-.12-61.56q0-7.92-4.74-11.82-4.7417-3.8979-12.3-3.9h-22.8v31.32h22.8q7.56,0,12.3-3.84T1010.3512,460.305Z" style="fill:#1d1e1b"/><path d="M1095.3112,497.1448a35.4482,35.4482,0,0,1-3.66,10.7393,27.0744,27.0744,0,0,1-6.48,7.9805,28.5966,28.5966,0,0,1-8.82,4.98,31.8675,31.8675,0,0,1-10.68,1.7393,31.2438,31.2438,0,0,1-11.94-2.2793,29.8306,29.8306,0,0,1-9.9-6.6006,24.1579,24.1579,0,0,1-4.62-6.24,28.0774,28.0774,0,0,1-2.4-7.26,54.6479,54.6479,0,0,1-.9-9.12q-.1215-5.0991-.12-11.94t.12-11.94a54.6906,54.6906,0,0,1,.9-9.12,28.1283,28.1283,0,0,1,2.4-7.26,24.1916,24.1916,0,0,1,4.62-6.24,29.843,29.843,0,0,1,9.9-6.6,31.28,31.28,0,0,1,11.94-2.28,31.845,31.845,0,0,1,10.68,1.74,28.637,28.637,0,0,1,8.82,4.98,27.1116,27.1116,0,0,1,6.48,7.9805,35.4811,35.4811,0,0,1,3.66,10.74h-9.36a22.53,22.53,0,0,0-6.96-12.6,19.3414,19.3414,0,0,0-13.32-4.68,21.6442,21.6442,0,0,0-8.1,1.56,18.7269,18.7269,0,0,0-6.66,4.44,17.4507,17.4507,0,0,0-3.24,4.38,20.2918,20.2918,0,0,0-1.8,5.64,57.4125,57.4125,0,0,0-.78,7.9209q-.18,4.62-.18,11.34,0,6.7223.18,11.34a57.3317,57.3317,0,0,0,.78,7.92,20.261,20.261,0,0,0,1.8,5.64,17.3986,17.3986,0,0,0,3.24,4.38,18.6888,18.6888,0,0,0,6.66,4.44,21.5852,21.5852,0,0,0,8.1,1.5595,19.793,19.793,0,0,0,13.44-4.68,22.21,22.21,0,0,0,7.08-12.6Z" style="fill:#1d1e1b"/><path d="M1164.071,521.8646v-39h-40.56v39h-9.12v-85.44h9.12v38.28h40.56v-38.28h9.12v85.44Z" style="fill:#1d1e1b"/><path d="M1282.39,490.6644a41.6572,41.6572,0,0,1-1.68,12.66,24.6075,24.6075,0,0,1-5.64,9.42,29.9685,29.9685,0,0,1-10.38,7.38,31.5654,31.5654,0,0,1-12.42,2.46,31.243,31.243,0,0,1-11.94-2.2793,29.8285,29.8285,0,0,1-9.9-6.6006,24.1561,24.1561,0,0,1-4.62-6.24,28.0812,28.0812,0,0,1-2.4-7.26,54.6691,54.6691,0,0,1-.9-9.12q-.1215-5.0991-.12-11.94t.12-11.94a54.7119,54.7119,0,0,1,.9-9.12,28.1321,28.1321,0,0,1,2.4-7.26,24.19,24.19,0,0,1,4.62-6.24,29.6881,29.6881,0,0,1,21.84-8.88,32.5509,32.5509,0,0,1,11.22,1.86,27.457,27.457,0,0,1,8.94,5.28,28.511,28.511,0,0,1,6.3,8.1,34.5222,34.5222,0,0,1,3.42,10.32h-9.12a22.4894,22.4894,0,0,0-7.26-12.78,20.1914,20.1914,0,0,0-13.5-4.62,20.9048,20.9048,0,0,0-8.1,1.62,19.3983,19.3983,0,0,0-6.66,4.5,17.4507,17.4507,0,0,0-3.24,4.38,20.2713,20.2713,0,0,0-1.8,5.58,55.7787,55.7787,0,0,0-.78,7.86q-.18,4.62-.18,11.34,0,6.7223.18,11.34a57.3317,57.3317,0,0,0,.78,7.92,20.261,20.261,0,0,0,1.8,5.64,17.3986,17.3986,0,0,0,3.24,4.38,18.6888,18.6888,0,0,0,6.66,4.44,21.5852,21.5852,0,0,0,8.1,1.5595,22.0853,22.0853,0,0,0,8.94-1.8593,19.4939,19.4939,0,0,0,7.26-5.46,18.5757,18.5757,0,0,0,3.72-6.78,30.9379,30.9379,0,0,0,1.08-8.7v-6.48h-21v-8.04h30.12Z" style="fill:#1d1e1b"/><path d="M1351.63,521.8646l-19.4405-37.92h-20.52v37.92h-9.12v-85.44h32.76a30.99,30.99,0,0,1,10.2,1.62,22.9133,22.9133,0,0,1,8.0405,4.6806,20.966,20.966,0,0,1,5.22,7.5,25.5671,25.5671,0,0,1,1.86,9.96q0,9.3588-5.16,15.3a23.4016,23.4016,0,0,1-13.44,7.62l20.28,38.76Zm-.12-61.56q0-7.92-4.74-11.82-4.7417-3.8979-12.3-3.9h-22.8v31.32h22.8q7.56,0,12.3-3.84T1351.51,460.305Z" style="fill:#1d1e1b"/><path d="M1436.71,479.1448q0,6.8394-.12,11.94a55.11,55.11,0,0,1-.8994,9.12,28.1689,28.1689,0,0,1-2.4,7.26,24.2018,24.2018,0,0,1-4.62,6.24,30.011,30.011,0,0,1-9.84,6.6006,31.118,31.118,0,0,1-12,2.2793,29.6767,29.6767,0,0,1-21.84-8.88,24.1556,24.1556,0,0,1-4.62-6.24,28.0929,28.0929,0,0,1-2.4-7.26,54.7042,54.7042,0,0,1-.8994-9.12q-.1216-5.0991-.12-11.94,0-6.8408.12-11.94a54.747,54.747,0,0,1,.8994-9.12,28.1439,28.1439,0,0,1,2.4-7.26,24.1893,24.1893,0,0,1,4.62-6.24,31.2972,31.2972,0,0,1,43.68,0,24.2356,24.2356,0,0,1,4.62,6.24,28.22,28.22,0,0,1,2.4,7.26,55.1538,55.1538,0,0,1,.8994,9.12Q1436.7082,472.3065,1436.71,479.1448Zm-9.12,0q0-6.7191-.18-11.34a56.08,56.08,0,0,0-.78-7.86,20.4067,20.4067,0,0,0-1.8-5.58,17.5468,17.5468,0,0,0-3.24-4.38,19.4228,19.4228,0,0,0-6.66-4.5,21.0568,21.0568,0,0,0-16.1992,0,19.3956,19.3956,0,0,0-6.66,4.5,17.4507,17.4507,0,0,0-3.24,4.38,20.2713,20.2713,0,0,0-1.8,5.58,55.7787,55.7787,0,0,0-.78,7.86q-.18,4.62-.18,11.34,0,6.7223.18,11.34a55.76,55.76,0,0,0,.78,7.86,20.2747,20.2747,0,0,0,1.8,5.5791,17.4036,17.4036,0,0,0,3.24,4.3809,19.3956,19.3956,0,0,0,6.66,4.5,21.0688,21.0688,0,0,0,16.1992,0,19.4228,19.4228,0,0,0,6.66-4.5,17.4991,17.4991,0,0,0,3.24-4.3809,20.41,20.41,0,0,0,1.8-5.5791,56.0613,56.0613,0,0,0,.78-7.86Q1427.59,485.8661,1427.59,479.1448Z" style="fill:#1d1e1b"/><path d="M1515.55,493.6644a30.1833,30.1833,0,0,1-2.22,11.7,26.7137,26.7137,0,0,1-6.24,9.18,28.192,28.192,0,0,1-9.48,5.94,34.9994,34.9994,0,0,1-23.88,0,27.5208,27.5208,0,0,1-9.4209-5.94,27.1014,27.1014,0,0,1-6.18-9.18,30.1466,30.1466,0,0,1-2.22-11.7v-57.24h9.12v56.52a25.8416,25.8416,0,0,0,1.4394,8.88,18.487,18.487,0,0,0,4.1406,6.72,18.9933,18.9933,0,0,0,6.54,4.32,24.0534,24.0534,0,0,0,17.04,0,18.5343,18.5343,0,0,0,10.7393-11.04,24.9042,24.9042,0,0,0,1.5-8.88v-56.52h9.12Z" style="fill:#1d1e1b"/><path d="M1596.1882,461.5042a27.2819,27.2819,0,0,1-1.92,10.44,22.1422,22.1422,0,0,1-5.3994,7.92,24.6481,24.6481,0,0,1-8.34,5.04,30.717,30.717,0,0,1-10.74,1.8h-22.68v35.16h-9.12v-85.44h31.8a31.7222,31.7222,0,0,1,10.74,1.74,23.4654,23.4654,0,0,1,8.34,5.04,22.8934,22.8934,0,0,1,5.3994,7.92A26.8345,26.8345,0,0,1,1596.1882,461.5042Zm-9.1192,0q0-8.5181-5.04-12.72-5.0406-4.1982-13.08-4.2h-21.84v33.96h21.84q8.0376,0,13.08-4.26Q1587.0681,470.0262,1587.069,461.5042Z" style="fill:#1d1e1b"/><path d="M664.3669,220.8646V210.4764a34.1667,34.1667,0,0,1-12.084,9.01,39.6283,39.6283,0,0,1-15.2647,2.65,43.8855,43.8855,0,0,1-15.2636-2.65,32.1631,32.1631,0,0,1-11.8721-7.3139,26.8137,26.8137,0,0,1-6.4658-9.54,56.7054,56.7054,0,0,1-3.2862-11.66,91.5207,91.5207,0,0,1-1.2714-12.72q-.2139-6.5691-.2129-12.72,0-6.1464.2129-12.6137a91.1722,91.1722,0,0,1,1.2714-12.6143,54.58,54.58,0,0,1,3.2862-11.5537,29.3136,29.3136,0,0,1,6.4658-9.646,32.37,32.37,0,0,1,11.7666-7.3144,43.0237,43.0237,0,0,1,15.1572-2.65,42.29,42.29,0,0,1,14.9463,2.4379,30.8486,30.8486,0,0,1,11.9785,8.586V69.9207h27.56V220.8646Zm-.6358-55.3321a113.7738,113.7738,0,0,0-.6367-12.5078,31.22,31.22,0,0,0-2.6494-9.9643,16.0752,16.0752,0,0,0-5.7246-6.6778q-3.7119-2.4345-9.8574-2.438-6.1524,0-9.8584,2.438a15.3223,15.3223,0,0,0-5.6182,6.6778,33.19,33.19,0,0,0-2.5439,9.9643,113.76,113.76,0,0,0-.6358,12.5078,116.6585,116.6585,0,0,0,.6358,12.6143,33.312,33.312,0,0,0,2.5439,10.07,15.2842,15.2842,0,0,0,5.6182,6.6778q3.7074,2.44,9.8584,2.4379,6.1464,0,9.8574-2.4379a16.0333,16.0333,0,0,0,5.7246-6.6778,31.3442,31.3442,0,0,0,2.6494-10.07A116.6737,116.6737,0,0,0,663.7311,165.5325Z" style="fill:#1d1e1b"/><path d="M776.9372,220.8646v-9.54a36.5052,36.5052,0,0,1-11.5537,8.0562q-6.0425,2.5437-15.5821,2.5439-18.4438,0-28.1962-9.7519a31.3986,31.3986,0,0,1-6.7842-11.0239,39.6766,39.6766,0,0,1-2.3321-13.78,33.0565,33.0565,0,0,1,2.3321-12.4019,27.94,27.94,0,0,1,6.9961-10.1762,33.6355,33.6355,0,0,1,11.7656-6.89,49.33,49.33,0,0,1,16.6426-2.5439h26.0761v-5.5122q0-9.1128-4.77-13.25-4.77-4.1339-15.7939-4.1338a40.5245,40.5245,0,0,0-6.9961.53,24.258,24.258,0,0,0-5.4063,1.59,20.1573,20.1573,0,0,0-4.5576,2.7563,29.9571,29.9571,0,0,0-4.24,4.24l-17.5957-17.1719q8.0537-8.904,17.0664-12.084,9.0073-3.18,22.79-3.18,23.3175,0,35.1914,9.7519,11.8712,9.7536,11.8721,29.2564v72.7158Zm-.6358-46.64H754.4655q-7.4238,0-11.4482,3.2862a11.2367,11.2367,0,0,0-4.0284,9.2221,11.7552,11.7552,0,0,0,3.9219,9.2217q3.9214,3.498,11.9785,3.4981a48.0428,48.0428,0,0,0,9.752-.8477,15.3159,15.3159,0,0,0,7.6318-4.4521q4.0254-3.816,4.0283-13.9922Z" style="fill:#1d1e1b"/><path d="M871.696,236.5526H845.8317l60.42-182.32h25.8643Z" style="fill:#1d1e1b"/><path d="M1040.0182,186.0965a33.4088,33.4088,0,0,1-3.6045,15.9,31.69,31.69,0,0,1-9.9638,11.2363,45.8777,45.8777,0,0,1-14.9453,6.6778,72.87,72.87,0,0,1-18.3389,2.226q-6.5727,0-12.72-.53a63.7092,63.7092,0,0,1-12.084-2.2261,53.65,53.65,0,0,1-11.4483-4.77,49.4436,49.4436,0,0,1-10.8115-8.3741l18.02-18.02a30.2176,30.2176,0,0,0,14.9462,8.586,68.1376,68.1376,0,0,0,14.5225,1.8022,39.6458,39.6458,0,0,0,7.1016-.6362,23.127,23.127,0,0,0,6.2539-2.0142,13.1,13.1,0,0,0,4.4521-3.498,8.215,8.215,0,0,0,1.6963-5.3,9.5441,9.5441,0,0,0-2.5439-6.89q-2.5445-2.6484-9.1162-3.2856l-17.3838-1.6963q-15.0557-1.48-23.6387-8.5859-8.5854-7.1-8.5859-22.3663a31.5534,31.5534,0,0,1,3.498-15.0517,33.4973,33.4973,0,0,1,9.3281-11.0239,42.1767,42.1767,0,0,1,13.5684-6.7842,55.9212,55.9212,0,0,1,16.2178-2.332,93.6171,93.6171,0,0,1,23.5322,2.7563,43.2065,43.2065,0,0,1,18.6562,10.1758l-16.9609,17.1719a26.774,26.774,0,0,0-11.6592-5.83,61.1718,61.1718,0,0,0-13.9922-1.59q-8.2676,0-11.9785,3.18a9.5323,9.5323,0,0,0-3.71,7.42,11.8389,11.8389,0,0,0,.4238,3.0738,6.3154,6.3154,0,0,0,1.6963,2.8623,12.5255,12.5255,0,0,0,3.498,2.332,15.7557,15.7557,0,0,0,5.83,1.272l17.3838,1.6958q16.5366,1.6992,24.6982,10.07Q1040.0153,172.1076,1040.0182,186.0965Z" style="fill:#1d1e1b"/><path d="M1083.2663,174.2244q0,10.812,6.2139,17.7022,6.2109,6.8913,17.7978,6.89,9.0528,0,14.3232-2.5439a39.1207,39.1207,0,0,0,10.5342-7.8443l16.6387,16.3243a79.6835,79.6835,0,0,1-8.4805,7.42,47.9441,47.9441,0,0,1-9.2216,5.4057,50.4808,50.4808,0,0,1-10.918,3.3921,69.7871,69.7871,0,0,1-13.3565,1.166,71.0254,71.0254,0,0,1-18.9736-2.5439,39.51,39.51,0,0,1-16.3242-9.01q-7.1045-6.4643-11.4483-17.3837-4.3476-10.9161-4.3457-27.6661a76.0175,76.0175,0,0,1,3.4981-24.062,50.5317,50.5317,0,0,1,9.8584-17.7021,41.4872,41.4872,0,0,1,15.1572-10.918,53.8266,53.8266,0,0,1,40.0684.3184,43.5462,43.5462,0,0,1,15.1582,11.0239,47.3364,47.3364,0,0,1,9.3281,16.6421,67.0349,67.0349,0,0,1,3.18,21.0937v12.2959Zm41.1279-18.8676a47.4939,47.4939,0,0,0-.7295-6.2544,29.0718,29.0718,0,0,0-1.7617-5.6177,21.19,21.19,0,0,0-6.7539-8.1621,21.1429,21.1429,0,0,0-22.6416,0,21.1914,21.1914,0,0,0-6.751,8.1621,28.9678,28.9678,0,0,0-1.7656,5.6177,47.5823,47.5823,0,0,0-.7246,6.2544Z" style="fill:#1d1e1b"/><path d="M1255.8327,207.0848a49.4,49.4,0,0,1-16.2178,11.3418,51.78,51.78,0,0,1-20.2461,3.71,61.3159,61.3159,0,0,1-17.0664-2.5439,39.7974,39.7974,0,0,1-15.9-9.01q-7.1045-6.4643-11.7656-17.3837-4.6655-10.9161-4.6641-27.6661,0-16.7445,4.6641-27.666,4.6611-10.9159,11.7656-17.2778a40.4435,40.4435,0,0,1,15.9-8.9043,61.3159,61.3159,0,0,1,17.0664-2.5439,53.1085,53.1085,0,0,1,20.2461,3.604,48.0705,48.0705,0,0,1,16.2178,11.2363l-18.6563,18.6557a29.4639,29.4639,0,0,0-8.2675-6.6777,21.1229,21.1229,0,0,0-9.54-2.0142,19.3191,19.3191,0,0,0-15.6885,7.2081,26.0573,26.0573,0,0,0-4.664,9.7519,59.6948,59.6948,0,0,0-1.4834,14.6279q0,16.9637,6.1474,24.5918a19.3092,19.3092,0,0,0,15.6885,7.208,21.0847,21.0847,0,0,0,9.54-2.0136,29.3547,29.3547,0,0,0,8.2675-6.6782Z" style="fill:#1d1e1b"/><path d="M220.076,194.0577a8.69,8.69,0,1,0-8.69-8.69,8.69,8.69,0,0,0,8.69,8.69" style="fill:#cd343d"/><path d="M220.076,218.5818a8.69,8.69,0,1,0-8.69-8.69,8.69,8.69,0,0,0,8.69,8.69" style="fill:#cd343d"/><path d="M185.3172,243.106a8.69,8.69,0,1,0-8.69-8.69,8.69,8.69,0,0,0,8.69,8.69" style="fill:#cd343d"/><path d="M220.076,243.106a8.69,8.69,0,1,0-8.69-8.69,8.69,8.69,0,0,0,8.69,8.69" style="fill:#cd343d"/><path d="M254.8345,243.106a8.69,8.69,0,1,0-8.69-8.69,8.69,8.69,0,0,0,8.69,8.69" style="fill:#cd343d"/><path d="M185.3172,267.63a8.69,8.69,0,1,0-8.69-8.69,8.69,8.69,0,0,0,8.69,8.69" style="fill:#cd343d"/><path d="M254.8345,267.63a8.69,8.69,0,1,0-8.69-8.69,8.69,8.69,0,0,0,8.69,8.69" style="fill:#cd343d"/><path d="M150.5587,292.1543a8.69,8.69,0,1,0-8.69-8.69,8.6906,8.6906,0,0,0,8.69,8.69" style="fill:#cd343d"/><path d="M185.3172,292.1543a8.69,8.69,0,1,0-8.69-8.69,8.69,8.69,0,0,0,8.69,8.69" style="fill:#cd343d"/><path d="M220.076,292.1543a8.69,8.69,0,1,0-8.69-8.69,8.6905,8.6905,0,0,0,8.69,8.69" style="fill:#cd343d"/><path d="M254.8345,292.1543a8.69,8.69,0,1,0-8.69-8.69,8.69,8.69,0,0,0,8.69,8.69" style="fill:#cd343d"/><path d="M289.593,292.1543a8.69,8.69,0,1,0-8.69-8.69,8.69,8.69,0,0,0,8.69,8.69" style="fill:#cd343d"/><path d="M81.0413,316.6784a8.69,8.69,0,1,0-8.69-8.69,8.69,8.69,0,0,0,8.69,8.69" style="fill:#cd343d"/><path d="M115.8,316.6784a8.69,8.69,0,1,0-8.69-8.69,8.6906,8.6906,0,0,0,8.69,8.69" style="fill:#cd343d"/><path d="M150.5587,316.6784a8.69,8.69,0,1,0-8.69-8.69,8.6906,8.6906,0,0,0,8.69,8.69" style="fill:#cd343d"/><path d="M220.076,316.6784a8.69,8.69,0,1,0-8.69-8.69,8.69,8.69,0,0,0,8.69,8.69" style="fill:#cd343d"/><path d="M289.593,316.6784a8.69,8.69,0,1,0-8.69-8.69,8.69,8.69,0,0,0,8.69,8.69" style="fill:#cd343d"/><path d="M324.3518,316.6784a8.69,8.69,0,1,0-8.69-8.69,8.69,8.69,0,0,0,8.69,8.69" style="fill:#cd343d"/><path d="M359.11,316.6784a8.69,8.69,0,1,0-8.69-8.69,8.6906,8.6906,0,0,0,8.69,8.69" style="fill:#cd343d"/><path d="M150.5587,341.2025a8.69,8.69,0,1,0-8.69-8.69,8.69,8.69,0,0,0,8.69,8.69" style="fill:#cd343d"/><path d="M185.3172,341.2025a8.69,8.69,0,1,0-8.69-8.69,8.69,8.69,0,0,0,8.69,8.69" style="fill:#cd343d"/><path d="M220.076,341.2025a8.69,8.69,0,1,0-8.69-8.69,8.69,8.69,0,0,0,8.69,8.69" style="fill:#cd343d"/><path d="M254.8345,341.2025a8.69,8.69,0,1,0-8.69-8.69,8.69,8.69,0,0,0,8.69,8.69" style="fill:#cd343d"/><path d="M289.593,341.2025a8.69,8.69,0,1,0-8.69-8.69,8.69,8.69,0,0,0,8.69,8.69" style="fill:#cd343d"/><path d="M185.3172,365.7267a8.69,8.69,0,1,0-8.69-8.69,8.69,8.69,0,0,0,8.69,8.69" style="fill:#cd343d"/><path d="M254.8345,365.7267a8.69,8.69,0,1,0-8.69-8.69,8.69,8.69,0,0,0,8.69,8.69" style="fill:#cd343d"/><path d="M185.3172,390.2508a8.69,8.69,0,1,0-8.69-8.69,8.69,8.69,0,0,0,8.69,8.69" style="fill:#cd343d"/><path d="M220.076,390.2508a8.69,8.69,0,1,0-8.69-8.69,8.69,8.69,0,0,0,8.69,8.69" style="fill:#cd343d"/><path d="M254.8345,390.2508a8.69,8.69,0,1,0-8.69-8.69,8.69,8.69,0,0,0,8.69,8.69" style="fill:#cd343d"/><path d="M220.076,414.7749a8.69,8.69,0,1,0-8.69-8.69,8.69,8.69,0,0,0,8.69,8.69" style="fill:#cd343d"/><path d="M220.076,439.2991a8.69,8.69,0,1,0-8.69-8.69,8.6905,8.6905,0,0,0,8.69,8.69" style="fill:#cd343d"/><path d="M220.076,71.437a8.69,8.69,0,1,0-8.69-8.69,8.69,8.69,0,0,0,8.69,8.69"/><path d="M220.076,95.9612a8.69,8.69,0,1,0-8.69-8.69,8.6905,8.6905,0,0,0,8.69,8.69"/><path d="M185.3172,120.4853a8.69,8.69,0,1,0-8.69-8.69,8.69,8.69,0,0,0,8.69,8.69"/><path d="M254.8345,120.4853a8.69,8.69,0,1,0-8.69-8.69,8.69,8.69,0,0,0,8.69,8.69"/><path d="M185.3172,145.0094a8.69,8.69,0,1,0-8.69-8.69,8.69,8.69,0,0,0,8.69,8.69"/><path d="M220.076,145.0094a8.69,8.69,0,1,0-8.69-8.69,8.69,8.69,0,0,0,8.69,8.69"/><path d="M254.8345,145.0094a8.69,8.69,0,1,0-8.69-8.69,8.69,8.69,0,0,0,8.69,8.69"/><path d="M150.5587,169.5336a8.69,8.69,0,1,0-8.69-8.69,8.6906,8.6906,0,0,0,8.69,8.69"/><path d="M220.076,169.5336a8.69,8.69,0,1,0-8.69-8.69,8.69,8.69,0,0,0,8.69,8.69"/><path d="M289.593,169.5336a8.69,8.69,0,1,0-8.69-8.69,8.69,8.69,0,0,0,8.69,8.69"/><path d="M150.5587,194.0577a8.69,8.69,0,1,0-8.69-8.69,8.69,8.69,0,0,0,8.69,8.69"/><path d="M185.3172,194.0577a8.69,8.69,0,1,0-8.69-8.69,8.69,8.69,0,0,0,8.69,8.69"/><path d="M254.8345,194.0577a8.69,8.69,0,1,0-8.69-8.69,8.69,8.69,0,0,0,8.69,8.69"/><path d="M289.593,194.0577a8.69,8.69,0,1,0-8.69-8.69,8.69,8.69,0,0,0,8.69,8.69"/><path d="M115.8,218.5818a8.69,8.69,0,1,0-8.69-8.69,8.69,8.69,0,0,0,8.69,8.69"/><path d="M185.3172,218.5818a8.69,8.69,0,1,0-8.69-8.69,8.69,8.69,0,0,0,8.69,8.69"/><path d="M254.8345,218.5818a8.69,8.69,0,1,0-8.69-8.69,8.69,8.69,0,0,0,8.69,8.69"/><path d="M324.3518,218.5818a8.69,8.69,0,1,0-8.69-8.69,8.69,8.69,0,0,0,8.69,8.69"/><path d="M115.8,243.106a8.69,8.69,0,1,0-8.69-8.69,8.6906,8.6906,0,0,0,8.69,8.69"/><path d="M150.5587,243.106a8.69,8.69,0,1,0-8.69-8.69,8.6906,8.6906,0,0,0,8.69,8.69"/><path d="M289.593,243.106a8.69,8.69,0,1,0-8.69-8.69,8.69,8.69,0,0,0,8.69,8.69"/><path d="M324.3518,243.106a8.69,8.69,0,1,0-8.69-8.69,8.69,8.69,0,0,0,8.69,8.69"/><path d="M81.0413,267.63a8.69,8.69,0,1,0-8.69-8.69,8.69,8.69,0,0,0,8.69,8.69"/><path d="M150.5587,267.63a8.69,8.69,0,1,0-8.69-8.69,8.69,8.69,0,0,0,8.69,8.69"/><path d="M289.593,267.63a8.69,8.69,0,1,0-8.69-8.69,8.69,8.69,0,0,0,8.69,8.69"/><path d="M359.11,267.63a8.69,8.69,0,1,0-8.69-8.69,8.69,8.69,0,0,0,8.69,8.69"/><path d="M46.2829,292.1543a8.69,8.69,0,1,0-8.69-8.69,8.6906,8.6906,0,0,0,8.69,8.69"/><path d="M81.0413,292.1543a8.69,8.69,0,1,0-8.69-8.69,8.6905,8.6905,0,0,0,8.69,8.69"/><path d="M115.8,292.1543a8.69,8.69,0,1,0-8.69-8.69,8.6906,8.6906,0,0,0,8.69,8.69"/><path d="M324.3518,292.1543a8.69,8.69,0,1,0-8.69-8.69,8.6905,8.6905,0,0,0,8.69,8.69"/><path d="M359.11,292.1543a8.69,8.69,0,1,0-8.69-8.69,8.6906,8.6906,0,0,0,8.69,8.69"/><path d="M393.8692,292.1543a8.69,8.69,0,1,0-8.69-8.69,8.6906,8.6906,0,0,0,8.69,8.69"/><path d="M11.5244,316.6784a8.69,8.69,0,1,0-8.69-8.69,8.6906,8.6906,0,0,0,8.69,8.69"/><path d="M46.2829,316.6784a8.69,8.69,0,1,0-8.69-8.69,8.6906,8.6906,0,0,0,8.69,8.69"/><path d="M393.8692,316.6784a8.69,8.69,0,1,0-8.69-8.69,8.6906,8.6906,0,0,0,8.69,8.69"/><path d="M428.6277,316.6784a8.69,8.69,0,1,0-8.69-8.69,8.6905,8.6905,0,0,0,8.69,8.69"/><path d="M46.2829,341.2025a8.69,8.69,0,1,0-8.69-8.69,8.69,8.69,0,0,0,8.69,8.69"/><path d="M81.0413,341.2025a8.69,8.69,0,1,0-8.69-8.69,8.69,8.69,0,0,0,8.69,8.69"/><path d="M115.8,341.2025a8.69,8.69,0,1,0-8.69-8.69,8.69,8.69,0,0,0,8.69,8.69"/><path d="M324.3518,341.2025a8.69,8.69,0,1,0-8.69-8.69,8.69,8.69,0,0,0,8.69,8.69"/><path d="M359.11,341.2025a8.69,8.69,0,1,0-8.69-8.69,8.69,8.69,0,0,0,8.69,8.69"/><path d="M393.8692,341.2025a8.69,8.69,0,1,0-8.69-8.69,8.69,8.69,0,0,0,8.69,8.69"/><path d="M81.0413,365.7267a8.69,8.69,0,1,0-8.69-8.69,8.6905,8.6905,0,0,0,8.69,8.69"/><path d="M150.5587,365.7267a8.69,8.69,0,1,0-8.69-8.69,8.6906,8.6906,0,0,0,8.69,8.69"/><path d="M289.593,365.7267a8.69,8.69,0,1,0-8.69-8.69,8.69,8.69,0,0,0,8.69,8.69"/><path d="M359.11,365.7267a8.69,8.69,0,1,0-8.69-8.69,8.6906,8.6906,0,0,0,8.69,8.69"/><path d="M115.8,390.2508a8.69,8.69,0,1,0-8.69-8.69,8.6906,8.6906,0,0,0,8.69,8.69"/><path d="M150.5587,390.2508a8.69,8.69,0,1,0-8.69-8.69,8.6906,8.6906,0,0,0,8.69,8.69"/><path d="M289.593,390.2508a8.69,8.69,0,1,0-8.69-8.69,8.69,8.69,0,0,0,8.69,8.69"/><path d="M324.3518,390.2508a8.69,8.69,0,1,0-8.69-8.69,8.69,8.69,0,0,0,8.69,8.69"/><path d="M115.8,414.7749a8.69,8.69,0,1,0-8.69-8.69,8.69,8.69,0,0,0,8.69,8.69"/><path d="M185.3172,414.7749a8.69,8.69,0,1,0-8.69-8.69,8.69,8.69,0,0,0,8.69,8.69"/><path d="M254.8345,414.7749a8.69,8.69,0,1,0-8.69-8.69,8.69,8.69,0,0,0,8.69,8.69"/><path d="M324.3518,414.7749a8.69,8.69,0,1,0-8.69-8.69,8.69,8.69,0,0,0,8.69,8.69"/><path d="M150.5587,439.2991a8.69,8.69,0,1,0-8.69-8.69,8.6906,8.6906,0,0,0,8.69,8.69"/><path d="M185.3172,439.2991a8.69,8.69,0,1,0-8.69-8.69,8.69,8.69,0,0,0,8.69,8.69"/><path d="M254.8345,439.2991a8.69,8.69,0,1,0-8.69-8.69,8.69,8.69,0,0,0,8.69,8.69"/><path d="M289.593,439.2991a8.69,8.69,0,1,0-8.69-8.69,8.69,8.69,0,0,0,8.69,8.69"/><path d="M150.5587,463.8232a8.69,8.69,0,1,0-8.69-8.69,8.69,8.69,0,0,0,8.69,8.69"/><path d="M220.076,463.8232a8.69,8.69,0,1,0-8.69-8.69,8.69,8.69,0,0,0,8.69,8.69"/><path d="M289.593,463.8232a8.69,8.69,0,1,0-8.69-8.69,8.69,8.69,0,0,0,8.69,8.69"/><path d="M185.3172,488.3473a8.69,8.69,0,1,0-8.69-8.69,8.69,8.69,0,0,0,8.69,8.69"/><path d="M220.076,488.3473a8.69,8.69,0,1,0-8.69-8.69,8.69,8.69,0,0,0,8.69,8.69"/><path d="M254.8345,488.3473a8.69,8.69,0,1,0-8.69-8.69,8.69,8.69,0,0,0,8.69,8.69"/><path d="M185.3172,512.8715a8.69,8.69,0,1,0-8.69-8.69,8.69,8.69,0,0,0,8.69,8.69"/><path d="M254.8345,512.8715a8.69,8.69,0,1,0-8.69-8.69,8.69,8.69,0,0,0,8.69,8.69"/><path d="M220.076,537.3956a8.69,8.69,0,1,0-8.69-8.69,8.69,8.69,0,0,0,8.69,8.69"/><path d="M220.076,561.92a8.69,8.69,0,1,0-8.69-8.69,8.69,8.69,0,0,0,8.69,8.69"/><path d="M254.8345,46.9129a8.69,8.69,0,1,0-8.69-8.69,8.69,8.69,0,0,0,8.69,8.69" style="fill:#bab4b5"/><path d="M254.8345,71.437a8.69,8.69,0,1,0-8.69-8.69,8.69,8.69,0,0,0,8.69,8.69" style="fill:#bab4b5"/><path d="M289.593,95.9612a8.69,8.69,0,1,0-8.69-8.69,8.69,8.69,0,0,0,8.69,8.69" style="fill:#bab4b5"/><path d="M289.593,120.4853a8.69,8.69,0,1,0-8.69-8.69,8.69,8.69,0,0,0,8.69,8.69" style="fill:#bab4b5"/><path d="M324.3518,145.0094a8.69,8.69,0,1,0-8.69-8.69,8.69,8.69,0,0,0,8.69,8.69" style="fill:#bab4b5"/><path d="M324.3518,169.5336a8.69,8.69,0,1,0-8.69-8.69,8.69,8.69,0,0,0,8.69,8.69" style="fill:#bab4b5"/><path d="M359.11,194.0577a8.69,8.69,0,1,0-8.69-8.69,8.69,8.69,0,0,0,8.69,8.69" style="fill:#bab4b5"/><path d="M359.11,218.5818a8.69,8.69,0,1,0-8.69-8.69,8.69,8.69,0,0,0,8.69,8.69" style="fill:#bab4b5"/><path d="M393.8692,243.106a8.69,8.69,0,1,0-8.69-8.69,8.6906,8.6906,0,0,0,8.69,8.69" style="fill:#bab4b5"/><path d="M393.8692,267.63a8.69,8.69,0,1,0-8.69-8.69,8.69,8.69,0,0,0,8.69,8.69" style="fill:#bab4b5"/><path d="M428.6277,267.63a8.69,8.69,0,1,0-8.69-8.69,8.69,8.69,0,0,0,8.69,8.69" style="fill:#bab4b5"/><path d="M428.6277,292.1543a8.69,8.69,0,1,0-8.69-8.69,8.6906,8.6906,0,0,0,8.69,8.69" style="fill:#bab4b5"/><path d="M463.386,292.1543a8.69,8.69,0,1,0-8.69-8.69,8.6906,8.6906,0,0,0,8.69,8.69" style="fill:#bab4b5"/><path d="M289.593,22.3888a8.69,8.69,0,1,0-8.69-8.69,8.69,8.69,0,0,0,8.69,8.69" style="fill:#e4e3e3"/><path d="M289.593,46.9129a8.69,8.69,0,1,0-8.69-8.69,8.69,8.69,0,0,0,8.69,8.69" style="fill:#e4e3e3"/><path d="M324.3518,71.437a8.69,8.69,0,1,0-8.69-8.69,8.69,8.69,0,0,0,8.69,8.69" style="fill:#e4e3e3"/><path d="M324.3518,95.9612a8.69,8.69,0,1,0-8.69-8.69,8.6905,8.6905,0,0,0,8.69,8.69" style="fill:#e4e3e3"/><path d="M359.11,120.4853a8.69,8.69,0,1,0-8.69-8.69,8.69,8.69,0,0,0,8.69,8.69" style="fill:#e4e3e3"/><path d="M359.11,145.0094a8.69,8.69,0,1,0-8.69-8.69,8.69,8.69,0,0,0,8.69,8.69" style="fill:#e4e3e3"/><path d="M393.8692,169.5336a8.69,8.69,0,1,0-8.69-8.69,8.6906,8.6906,0,0,0,8.69,8.69" style="fill:#e4e3e3"/><path d="M393.8692,194.0577a8.69,8.69,0,1,0-8.69-8.69,8.69,8.69,0,0,0,8.69,8.69" style="fill:#e4e3e3"/><path d="M428.6277,218.5818a8.69,8.69,0,1,0-8.69-8.69,8.69,8.69,0,0,0,8.69,8.69" style="fill:#e4e3e3"/><path d="M428.6277,243.106a8.69,8.69,0,1,0-8.69-8.69,8.6905,8.6905,0,0,0,8.69,8.69" style="fill:#e4e3e3"/><path d="M463.386,243.106a8.69,8.69,0,1,0-8.69-8.69,8.6906,8.6906,0,0,0,8.69,8.69" style="fill:#e4e3e3"/><path d="M463.386,267.63a8.69,8.69,0,1,0-8.69-8.69,8.69,8.69,0,0,0,8.69,8.69" style="fill:#e4e3e3"/><path d="M498.145,267.63a8.69,8.69,0,1,0-8.69-8.69,8.69,8.69,0,0,0,8.69,8.69" style="fill:#e4e3e3"/></svg>